<svg viewBox="0 0 1441 1090" xmlns="http://www.w3.org/2000/svg"><path fill="#1a65a8" opacity=".89" d="M0 1h.96c.12 363-.05 726 .09 1089H0V1Z"/><g fill="#1e73be"><path d="M.96 1C480.64 1 960.32 1.01 1440 .99c-.01 363.01.01 726.01-.01 1089.01H1.05C.91 727 1.08 364 .96 1M714.9 47.81c-5.51 4.67-4.35 14.42 2.15 17.63.57 1.84 2.4 2.57 3.87 3.56-5.55 49.07-10.68 98.2-16.47 147.24-2.17-1.92-3.07-4.75-4.49-7.18-19.89-36.4-39.49-72.98-59.51-109.31 1.89-1.83 4.17-3.51 5.1-6.08 1.79-4.37.12-9.88-3.72-12.59-1.95-2.48-4.59-4.66-7.83-5.03-5.74-1.1-11.73 3.25-12.57 9-.98 4.63 1.63 9.26 5.52 11.68 1.48 2.85 4.83 3.84 7.8 4.2l14.46 81.93c2.44 14.7 5.48 29.31 7.55 44.06-1.12-1.51-2.39-2.9-3.94-3.95-.21-.22-.62-.64-.83-.86 1.37-1.25-.83-3.78-2.24-2.59-.3-.36-.9-1.08-1.19-1.45 1.21-1.4-.85-4.43-2.53-3.3l-.21-.31c-1.6-3.33-4.2-6.22-6.99-8.61-.19-.21-.56-.63-.75-.84l.26-.88-.73-.82-.94.12c-.55-.8-1.17-1.55-1.85-2.23 1.14-1.43-1.07-4.38-2.71-3.43l-.22-.31c-.84-2.46-2.74-4.33-4.81-5.8-.28-.34-.84-1.03-1.12-1.37-1.63-3.26-4.01-6.25-6.9-8.47-.3-.35-.88-1.07-1.18-1.43-1.13-2.46-2.75-4.95-5.19-6.25-1.47-1.62-2.8-3.36-4.21-5.01 1.03-1.86-1.36-5.23-3.42-4.35l-.79-.97c-.05-.05-.14-.15-.18-.2-1.55-1.6-2.82-3.44-4.22-5.15.77-1.87-1.7-5.17-3.73-4.64l-.24-.34c-2.24-4-5.33-7.66-8.77-10.68-.35-.39-1.07-1.18-1.43-1.57 1.17-1.46-1.08-4.35-2.73-3.34-.28-.38-.83-1.14-1.11-1.52-2.27-4.05-5.38-7.84-8.93-10.84l-.51-.6c1.63-2.5 3.84-4.89 4.11-8 .22-3.79-1.35-7.78-4.5-10-3.7-5.56-12.29-6.9-17.08-2.02-5.18 4.6-4.2 13.49 1.43 17.3 2.62 3.72 7.3 5.24 11.71 4.41 16 39.5 31.99 79 47.96 118.51.43.01 1.29.02 1.72.03.37.88.74 1.76 1.12 2.64 8.03.81 16.07-.14 24.11.36 14.68-.52 29.35 0 44.04-.11 39.3-.18 78.62.26 117.95-.06 8.91-.53 17.86.74 26.76-.19 16.36-40.56 32.62-81.18 49.27-121.62 4.02 1.15 8.73.68 11.7-2.52 4.87-4.25 4.44-12.94-.94-16.57-1.9-2.48-4.51-4.65-7.7-5.06-5.72-1.18-11.76 3.1-12.67 8.83-1.08 3.94.88 7.85 3.7 10.49-2.59 3.6-5.56 6.91-8.32 10.38-24.99 30.43-49.85 60.98-74.92 91.35 7.21-40.76 14.19-81.58 21.7-122.28 4.54.49 9.38-1.58 11.5-5.76 2.67-4.66 1.19-10.99-3.15-14.09-3.66-5.53-12.18-6.86-16.97-2.06-5.45 4.71-4.36 14.41 2.22 17.55-1.47 3.29-3.34 6.37-5.03 9.55-19.93 36.7-39.81 73.43-59.78 110.11.05-.53.13-1.59.17-2.12-5.36-48.04-10.64-96.1-16.02-144.15 2.66-.83 5.45-1.83 7.22-4.13 4.12-4.45 3.11-12.27-1.84-15.68-3.61-5.59-12.16-7-16.99-2.21M522.44 182.37c-4.72 2.55-9.19 5.54-13.82 8.23-10.24 5.85-19.63 12.99-29.36 19.62-7.51 5.81-14.96 11.72-22.32 17.72-8.5 7.85-17.45 15.23-25.34 23.71-22.76 22.72-42.54 48.33-59.4 75.69 3.24-.01 6.48-.02 9.72.22-13.36-.1-26.66 1.41-40 2.02-41.26 2.55-82.53 5.06-123.79 7.64 10.48 53.56 20.88 107.13 31.37 160.68.19.37.57 1.1.76 1.47-3.54 0-7.07.1-10.6.08-.08 20.68.16 41.37-.12 62.05-8.94-19.25-17.38-38.75-26.22-58.05-.35-.84-1.01-1.18-1.97-1.01-.49-1.03-.99-2.04-1.48-3.05-3.26.07-6.51.07-9.76-.04-.28 33.41-.22 66.85-.03 100.27.67-.01 2.01-.01 2.68-.02.02.69.07 2.07.09 2.77 4.14.02 8.28.08 12.41-.07.23-21.27-.06-42.55.16-63.81 9.24 20.25 18.06 40.7 27.12 61.04l1.76.04c.35.72 1.05 2.17 1.41 2.89 2.93-.1 5.88-.09 8.82.04.66-25.27-.09-50.59.38-75.88 4.2 18.55 6.98 37.42 11.37 55.91-1.1 5.69-2.43 11.34-3.69 17 1.09.01 2.18.03 3.27.06-.04.7-.13 2.1-.17 2.8 1.39-.01 2.79-.01 4.19 0 10.8 55.06 21.26 110.19 32.37 165.18.55.06 1.66.17 2.21.22.18.67.53 2 .71 2.67 19.46 2.27 38.87 4.9 58.31 7.28 4.02.58 8.06 1.16 12.14 1.12 8.51 13.76 18.11 26.78 28.13 39.47 7 7.96 13.49 16.39 21.06 23.85 4.95 4.99 9.65 10.23 14.82 15.01.04.04.13.12.18.16 6.08 5.42 12.03 10.99 18.1 16.42 1.79 2.85 4.91 4.41 7.37 6.62 3.01 2.18 5.54 5.1 9 6.61.2.16.62.49.82.65 1.31 2.11 3.53 3.36 5.48 4.82 9.63 6.71 19.02 13.82 29.2 19.72 11.52 7.5 23.78 13.72 35.95 20.08 10.19 4.48 20.13 9.57 30.63 13.3 49.68 19.59 103.3 28.96 156.67 27.91 70.51-1.17 140.63-21.06 201.15-57.29 55.64-33.05 103.24-79.47 137.72-134.22.83-1.18 1.6-2.77 3.28-2.72 23.42-2.96 46.84-6 70.28-8.85 15.06-75.74 29.6-151.59 44.47-227.37.73-3.23.89-6.65 2.36-9.67.32 22.06.04 44.12.15 66.18.96.01 1.93.02 2.92.04.07.69.2 2.07.27 2.76 4.73.13 9.47.06 14.21-.02.06-15.63-.09-31.3.35-46.9 3.03.09 6.06.09 9.11-.03 4.38 14.72 8.55 29.49 13.01 44.19.51 0 1.52.01 2.03.01.18.65.55 1.95.73 2.6 4.63.46 9.3.12 13.95.15-4.21-16.9-10.12-33.37-14.43-50.24 7.33-2.18 11.82-9.69 12.18-17.05 1.44-9.44.19-20.59-7.54-27.13-3.38-3.8-8.14-6.06-13.04-7.14-9.11-2.02-18.49-1.11-27.72-1.39 10.36-52.99 20.49-106.03 31.11-158.97-1.15-.24-2.28-.47-3.4-.7.13-.57.38-1.72.51-2.3-51.14-3.71-102.38-6.24-153.54-9.76l.86.03c-3.06-4.52-6-9.12-8.99-13.68-5.22-8.31-11.49-15.88-17.25-23.81-1.95-2.38-3.47-5.26-6.14-6.93-7.67-8.32-14.42-17.46-22.51-25.38-28.41-30.09-61.49-55.77-97.63-75.91-.83 11.11-3.29 22.1-7.29 32.49.94.68 1.89 1.37 2.89 2.02.47 1.88 2.44 2.54 3.87 3.54 14.55 8.8 28.49 18.62 41.64 29.41 1.49 1.25 2.96 2.59 4.81 3.3 8.55 6.99 16.49 14.68 24.26 22.52.03.03.11.1.14.14 15.14 15.4 28.8 32.18 41.26 49.82 2.27.09 4.57.2 6.86.35-10.79-.25-21.56-1.34-32.34-1.85-93.2-5.74-186.4-11.45-279.6-17.21-7.04-.71-14.07.29-21.09.59-96.67 5.93-193.33 11.96-290 17.83 30.19-42.71 69.35-78.98 114.16-105.93 2.83-.92 1.57-4.04.86-6.07-3.24-9.01-4.8-18.5-5.91-27.97l-1.57.68c-1.73-.32-.13-3.86-2-3.27m94.73 70.46c.01 8.31-.02 16.62.02 24.93.64 0 1.91.01 2.55.01.15.73.44 2.2.59 2.93.67-.01 2.03-.04 2.71-.06 0 4.99-.1 9.98.09 14.96.68-.01 2.02-.04 2.69-.05.01.73.01 2.17.02 2.9 66.22.1 132.44-.07 198.66.08.38-5.93.07-11.87.2-17.81 1.93-.04 3.88-.07 5.84-.1-.11-8.32.29-16.66-.18-24.96h-2.75c-.02-.96-.02-1.91-.01-2.85-41.85-.48-83.71-.08-125.57-.21-28.29.13-56.58-.28-84.86.23M70.22 499.42c-.11 33.35.05 66.7-.08 100.05.98.03 1.96.07 2.94.11.11.73.34 2.2.45 2.93 9.12-.39 18.28.23 27.4-.37 7.01-.49 14.5-2.52 19.17-8.13 5.07-6.07 6.61-14.27 6.72-21.98.07-13.36.03-26.72.02-40.08.04-5.43-.66-10.96-2.89-15.95-.77-1.62-1.44-3.63-3.4-4.12-3.14-6.16-9.36-10.11-16.07-11.26-11.3-2.07-22.85-.84-34.26-1.2m60.79.01c6.69 19.52 13.64 38.94 20.43 58.43.84 2.65 2.23 5.22 2.2 8.08 0 11.19-.02 22.39 0 33.59.99.01 1.98.03 2.97.05.02.7.04 2.11.06 2.82 4.58 0 9.16-.06 13.74.05.54-11.8-.15-23.65.34-35.45 7.08-21.65 15.2-42.97 22.18-64.64-.91.05-2.74.16-3.66.21.33-1.04.57-2.11.83-3.16-4.54.03-9.07.03-13.6.02-5.09 15.22-9.91 30.53-15.08 45.73 0-2.12-1.01-4.05-1.6-6.03-4.29-12.34-8.01-24.88-12.6-37.11l-1.4.77c-.4-1.13-.79-2.26-1.19-3.37-4.54.03-9.08.02-13.62.01m1120.38.01c-.01 3.48-.01 6.95-.03 10.44.75.01 2.24.02 2.99.03l.04 2.83c5.33.03 10.67-.01 16.01.03.06 28.92 0 57.84.03 86.77.98 0 1.98.02 3 .04.02.71.07 2.12.1 2.83 4.77-.08 9.55.08 14.33-.11.08-29.85-.2-59.71.14-89.55 6.18-.04 12.38.03 18.58-.06-.03-3.4-.03-6.8-.01-10.2-.7-.02-2.11-.08-2.82-.11-.01-.74-.02-2.21-.03-2.95-17.45.02-34.89 0-52.33.01Z"/><path d="M250.78 364.78c158.08-9.65 316.14-19.52 474.22-29.13 157.12 9.58 314.24 19.28 471.36 28.99-9.11 46.63-18.11 93.28-27.33 139.89-.35-.34-1.05-1.04-1.4-1.38 8.52-44.44 17.35-88.82 25.9-133.24-.85-.05-2.54-.13-3.39-.18l.48-2.66c-155.22-9.48-310.43-19.08-465.64-28.62-6.33-.27-12.63.55-18.94.82-150.65 9.3-301.3 18.53-451.95 27.86 9.4 48.02 18.73 96.06 28.13 144.08-.65 3.28-1.46 6.52-2.05 9.82.25-1.99.35-4.02-.07-5.99-9.82-50.07-19.57-100.17-29.32-150.26Z"/><path d="M266.58 377.76c152.84-9.2 305.65-18.88 458.48-28.1 151.89 9.13 303.77 18.83 455.66 27.87-7.88 40.56-15.83 81.12-23.72 121.69-9.49-1.17-20.47-.88-27.96 5.87-6.95 6.62-8.24 16.81-8.36 25.93.04 13.3-.21 26.61.14 39.9.23 9.3 2.93 19.29 10.62 25.22 1.68 1.74 3.6 3.27 5.79 4.36-8.47 43.38-16.85 86.78-25.42 130.14-129.3 16.26-258.58 32.7-387.88 48.98-4.06.3-8.06-.63-12.06-1.07-125.52-15.86-251.02-31.79-376.54-47.62-8.39-43.21-17.01-86.39-25.19-129.64.41.28 1.25.86 1.66 1.15 4.07-.06 8.15-.05 12.22-.07-.66-6.22-2.48-12.24-3.73-18.35-6.16-27.06-12-54.22-18.34-81.22-.52-.1-1.58-.31-2.11-.41-.28-1.02-.6-2.03-.89-3.02-2.94.07-5.89.07-8.83.05-7.72-40.57-15.99-81.05-23.54-121.66m373.12 28.93c-12.59 10.01-21.13 24.55-24.85 40.11-4.27 17.24-3.54 35.25-1.18 52.71-5.08-.13-10.17-.06-15.25-.07-.02 33.37-.02 66.74 0 100.1 1 .01 2.02.02 3.04.04 0 .7.01 2.12.02 2.82 4.77-.03 9.55.02 14.34-.04.13-15.52-.1-31.03.12-46.54 8.98-.29 18.72 1.15 26.83-3.68 4.96 5.31 10.78 9.69 15.96 14.78-.1 10.49 1.75 22.7 10.94 29.23 1.78 2.66 4.83 4.01 7.68 5.22 6.96 2.38 14.56 2.59 21.74 1.18 8.12 6.62 15.77 13.8 23.18 21.2 10.6 11.2 21.74 23.01 26.19 38.17 3.03 10 3.68 20.62 2.81 30.99-.93 9.79-4.36 19.88-11.77 26.66-7.06 6.71-17.02 9.29-26.53 9.6-12.26.72-25.43-2.73-34.13-11.8-12.8-19.36-16.91-42.89-18.64-65.65-.65.03-1.94.09-2.59.13-.29-1.03.32-3.02-1.37-2.95-15.15 3.99-30.25 8.18-45.4 12.2.7 14.15 2.82 28.28 7.03 41.83 5.29 17.39 14.54 33.82 28.03 46.17 6.55 7.1 15.09 12.22 23.83 16.22 15.44 6.7 32.54 8.66 49.25 8.08 12.38-.64 24.82-3.05 36.13-8.27 15.73-7.14 29.2-19.35 37.51-34.53 7.63-13.9 10.57-29.91 10.77-45.64-.37-13.01-1.56-26.2-6-38.53-4.24-14.5-12.86-27.18-21.71-39.22-.9-1.28-1.89-2.54-3.31-3.23 4.34-2.84 9.9-.63 14.76-1.54-4.44-16.88-10.1-33.44-14.59-50.3 7.32-2.2 11.82-9.65 12.23-17 1.43-9.48.21-20.67-7.56-27.23-5.06-5.71-12.92-7.66-20.25-8.19-8.83-.54-17.69-.19-26.53-.27.02 20.6-.07 41.21.04 61.81-4.19-2.83-7.57-6.65-11.61-9.67-.11-8.2.22-16.42-.22-24.61-.73-6.92-2.77-14.51-8.31-19.15-3.64-4.83-9.33-7.73-15.25-8.55-8.73-1.26-18.32-.85-25.95 4.02-6.1-9.92-7.94-21.83-7.53-33.3.26-9.84 2.77-20.31 9.88-27.53 7.57-7.88 18.78-10.82 29.38-11.37 11.07-1.24 22.9.84 31.87 7.79 1.66 1.84 3.1 3.87 4.34 6.03 8.5 15.8 11.28 33.85 12.8 51.51.65-.15 1.97-.43 2.63-.57.07.8.23 2.4.31 3.21 4.74-.66 9.28-2.27 13.92-3.44 10.22-2.8 20.48-5.46 30.67-8.37-2.4-22.52-7.01-45.7-19.88-64.79-1.92-2.71-3.66-5.68-6.4-7.65-5.88-7.19-13.12-13.31-21.44-17.49-16.48-8.35-35.4-10.35-53.63-9.69-20.03.73-40.63 6.11-56.35 19.05m-238.4.56c.01 30.75.06 61.49-.03 92.24-5.37-.12-10.75 0-16.12-.1-.09 3.51-.08 7.01-.06 10.52.67 0 2.01.01 2.69.01.08.71.26 2.14.35 2.85 4.39-.03 8.78-.01 13.17-.02.04 70.3-.03 140.61.04 210.91 1-.03 2-.04 3.01-.05.02.72.06 2.17.07 2.89 25.51-.15 51.03.14 76.54-.15 20.41-.59 42.08-4.77 57.95-18.52 12.59-11.01 19.66-26.97 23.42-42.98 4.84-20.03 4.47-40.78 4.27-61.25 4.7-.77 9.57-1.63 13.54-4.45 6.38-4.04 9.95-11.65 9.7-19.11.61-9.68-4.75-18.69-11.6-25.07-3.62-3.81-7.39-7.46-11.49-10.75-.05-10.13-.14-20.28.02-30.41l1.49-1.37c3.18 4.34 3.98 9.91 4.54 15.14l2.7-.52c.07.86.2 2.59.27 3.46 4.04-.97 8.04-2.08 12.08-3.05-.04-7.14-2.08-15.13-7.68-19.94-3.19-4.56-8.3-7.45-13.75-8.32-.5-19.96-4.05-40.71-15.03-57.77-1.92-2.72-3.59-5.76-6.36-7.71-8.74-11.06-21.61-18.13-35.08-21.7-18.18-5.19-37.26-4.88-55.99-4.8-17.55.01-35.11-.04-52.66.02m479.98-.04c-.09 30.62.18 61.25-.14 91.85l-.78.62c-9.81-2.32-21.85-1.11-28.8 6.93-5.42 6.5-5.62 15.77-3.78 23.65 1.67 6.99 7.1 12.09 12.49 16.42 7.14 6.13 14.77 11.77 21.08 18.79-.16 7.51-.01 15.03-.1 22.54-4.7 1.88-10.58 2.22-14.85-.89-2.02-5.08-3.69-10.28-3.95-15.79-.62.02-1.84.05-2.46.07-.12-.83-.37-2.5-.49-3.33-4.42 1.12-8.89 2.1-13.22 3.53.84 8.97 3.65 18.44 11.07 24.19l-.43-.3c5.98 6.8 15.74 8.67 24.38 7.7-.04 40.14-.03 80.28 0 120.43 1.04-.02 2.09-.04 3.14-.04-.03.72-.11 2.16-.14 2.88 14.69-.09 29.38.05 44.07-.07.03-49.4.07-98.8-.02-148.2 4-.51 8.04-.45 12.06-.12.06 7.16.01 14.31.04 21.47.98.01 1.98.02 2.98.04.03.71.07 2.12.1 2.82 4.76-.05 9.54.06 14.32-.08-.21-8.05.41-16.08.26-24.12l2.53-.16c13.43 48.55 27 97.06 40.59 145.57.52-.01 1.56-.03 2.08-.03l.72 2.72c14.17.38 28.37.04 42.55.16-4.37-16.71-9.37-33.26-13.98-49.91-7.04-24.66-13.89-49.38-21.04-74 13.3-.3 26.62-.08 39.93-.12.16-3.33.16-6.66.13-9.99-.71-.04-2.13-.11-2.84-.14-.01-.73-.02-2.19-.03-2.92-7.81 0-15.61.03-23.41-.01.15-11.25-.27-22.51.21-33.75 6.97.14 13.94.13 20.92.01-.05-3.16-.04-6.31.07-9.46-.72-.13-2.17-.38-2.89-.51.01-.65.02-1.94.02-2.59-4.16-.27-8.33-.1-12.48-.2 4.39-9.54 7.29-19.71 8.52-30.15 3.89.03 7.79.05 11.69-.08-.04-3.37-.04-6.74-.01-10.11-.71-.02-2.12-.07-2.83-.09-.02-1-.04-2-.04-2.99l-7.87-.03c.44-13.65-.5-27.49-4.49-40.6-3.06-9.53-7.53-19.15-15-25.98-6.48-7.58-14.89-13.34-24.1-17.07-16.75-6.86-35.07-8.5-53-8.57-20.93 0-41.86-.02-62.78.01M333.01 508.05c-4.46 6.71-4.53 15.47-2.44 23.01 2.13 7.74 8.81 12.78 14.71 17.66 6.37 5.6 13.43 10.56 18.84 17.17 3.94 4.75 5.21 11.6 3.17 17.43-2.61 7.18-12.78 7.65-18.32 3.82a53.803 53.803 0 0 1-4.05-15.72c-.6-.04-1.81-.13-2.42-.17-.18-1.08-.36-2.14-.55-3.2-4.3 1.1-8.59 2.25-12.91 3.28.31 9.38 3.7 19.34 11.64 24.95 3.33 4.38 9.05 6.04 14.28 6.84 9.13 1.32 19.58-1.19 25.33-8.87 4.55-5.81 5.17-13.68 4.02-20.73-1.49-7.19-5.88-13.61-11.16-18.56-7.65-8.45-17.2-14.84-25.48-22.6-2.52-4.89-3.46-11.16-.49-16.06 4.03-4.66 10.87-4.1 16.41-3.44 2.74 4.45 3.62 9.71 4.19 14.83.66-.15 1.97-.47 2.63-.62.08.86.23 2.6.3 3.46 4.02-.98 8-2.14 12.05-3 .02-7.17-2.1-15.17-7.68-20-5.22-7.69-15.32-9.54-23.99-8.73-6.92.46-14.06 3.36-18.08 9.25m456.38-8.61c-.01 3.46 0 6.93-.07 10.39l3.03.08c.01.7.03 2.12.03 2.83 5.34.03 10.68 0 16.02.02.06 28.93 0 57.85.03 86.78.99 0 1.99.01 3.01.04l.08 2.83c4.77-.06 9.54.04 14.32-.08.11-29.86-.17-59.73.17-89.58 6.18-.05 12.37.04 18.57-.07-.03-3.4-.03-6.79-.01-10.18l-2.82-.12-.04-2.95c-17.44.02-34.88-.01-52.32.01m271.03 0c-.02 33.37-.02 66.74 0 100.1.96.01 1.93.02 2.92.04.07.69.22 2.07.29 2.76 4.74.09 9.5.15 14.25-.09.02-15.48-.05-30.95-.02-46.43 9.27-.32 19.55 1.32 27.67-4.26 7.65-5.1 10.22-14.86 9.76-23.59-.38-7.28-2.12-15.33-7.98-20.21-4.42-5.86-11.96-8.02-19-8.22-9.3-.23-18.6-.04-27.89-.1Z"/><path d="M928.33 441.9c8.23-.28 16.48-.2 24.72-.02 11.49.65 23.99 2.17 32.93 10.16 4.25 5.02 6.31 11.49 7.55 17.85 2.7 14.91 2.1 30.3-.79 45.13-1.42-2.69-3.33-5.09-5.53-7.17-5.54-6.05-14.02-7.85-21.88-8.25-8.29-.34-16.59-.1-24.88-.15.02 14.64-.07 29.29.04 43.94-4.04.05-8.06.03-12.09.07-.04-33.86.09-67.71-.07-101.56ZM448.39 443.02c9.87-.29 19.77-.38 29.64.22 10.76.48 22.5 2.12 30.72 9.73 4.15 4.95 6.37 11.21 7.63 17.47 2.48 12.04 2.28 24.38 2.8 36.61.15 19.98.02 39.96.06 59.94-.11 25.62.44 51.27-.96 76.87-.74 9.41-1.48 19.17-5.8 27.74-4.04 8.33-11.55 14.93-20.51 17.44-14.13 4.11-29.04 2.54-43.55 2.87.07-54.49-.14-108.98.11-163.47 3.67 9.47 6.78 19.16 10.24 28.71 1.11 3.21 2.61 6.41 2.49 9.89-.04 10.83-.04 21.67-.02 32.51l2.56.04.84 2.84c4.2-.15 8.41.15 12.61-.11 1.45-.92.81-2.98 1.03-4.39-.09-9.31-.01-18.61-.07-27.91-.2-3.89 1.52-7.44 2.75-11.02 6.57-18.83 13.12-37.67 19.72-56.49-.94-.03-2.82-.08-3.76-.11.32-.99.64-1.98.97-2.96-4.59-.01-9.18.01-13.77-.03-5.06 14.86-9.71 29.85-14.78 44.71-5.18-13.61-9.29-27.61-14.06-41.36-.53-.2-1.6-.58-2.13-.78-.22-.63-.65-1.9-.87-2.53-1.29-.02-2.58-.03-3.85-.03-.03-18.8.03-37.6-.04-56.4ZM1078.11 512.39c6.05.09 12.25-.28 18.1 1.6 2.42 3.83 2.05 8.71 2.24 13.07-.04 4.77-.38 10.71-4.89 13.52-4.74 2.68-10.46 2.14-15.7 2.35.13-10.18-.29-20.38.25-30.54ZM87.76 512.76c6.31-.09 12.82-.27 18.8 2.11 3.03 5.91 2.58 12.75 2.73 19.19-.07 12.64.18 25.28-.17 37.92-.21 5.45-.91 11.92-5.88 15.24-4.67 2.62-10.33 2.02-15.48 2.17-.02-25.55-.03-51.09 0-76.63ZM615.94 512.65c.41.29 1.22.85 1.62 1.14 2.67 7.4 6.06 14.6 10.66 21.02 1.35 1.88 2.53 3.88 3.62 5.93-5.03 2.18-10.6 2.15-15.98 2.19.04-10.09-.12-20.19.08-30.28ZM679.4 516.45c4.8-5.35 12.85-4.34 19.12-2.72 3.38 6.89 2.69 14.82 2.73 22.26-7.25-6.55-14.96-12.61-21.85-19.54ZM747.85 512.5c6.09-.09 12.55-.57 18.16 2.29 3.03 6.6 3.09 14.77.24 21.45-3.54 6.31-11.81 6.28-18.14 6.23-.56-9.98-.12-19.98-.26-29.97ZM864.53 516.48c4.04-4.68 11.31-4.94 16.77-2.9-.01 10.54-.03 21.08-.02 31.62-.58-.23-1.76-.69-2.34-.92-4.17-3.89-8.81-7.21-12.97-11.09-3.54-4.71-4.43-11.54-1.44-16.71Z"/><path d="M958.13 512.49c6.01-.08 12.38-.53 17.9 2.32 2.55 4.93 2.48 10.79 1.87 16.18-.54 2.4-.91 5.35-3.17 6.76-5.13 3.07-11.16 3.62-16.89 4.74.19-10-.08-20.01.29-30ZM1141.13 517.02c2.79-4.4 8.56-4.76 13.26-4.53-4.43 22.86-8.89 45.7-13.36 68.54-.32 1.7-.58 3.41-.75 5.14-1.45-4.56-1.87-9.34-1.85-14.09-.02-13.03 0-26.05-.01-39.07.2-5.37-.13-11.2 2.71-15.99ZM1209.86 512.49c6.09-.06 12.57-.57 18.17 2.32 2.28 4.31 2.36 9.39 2.11 14.15-.33 4.08-1.56 8.68-5.3 10.93-4.48 2.73-9.94 2.52-14.99 2.65.26-10.02-.06-20.03.01-30.05ZM1150.76 589.48c4.13-20.67 7.79-41.45 12.3-62.04.46 3.95.19 7.97-.6 11.86-3.61 16.59-6.52 33.32-9.92 49.95-.44.06-1.33.18-1.78.23ZM289.65 564.21c-1.54-5.05-1.2-10.31.18-15.35.41 4.4 1.38 8.73 2.33 13.05.12.6.37 1.78.49 2.37-.75-.02-2.25-.05-3-.07ZM748.21 555.39c3.03.09 6.06.1 9.09.05 3.94 13.5 8.02 26.97 11.8 40.51l.03 1.25c-1.73-1.09-3.45-2.19-5.08-3.4-.79-.86-1.56-1.73-2.36-2.55-.02-.68-.07-2.04-.1-2.72-.63-.15-1.91-.44-2.54-.59-3.74-3.46-7.26-7.15-10.95-10.65.03-7.3-.76-14.62.11-21.9ZM566.92 563.42c3.77 3.5 6.4 8.37 6.39 13.61.33 4.67-1.6 10.24-6.5 11.74-.12-8.45-.32-16.91.11-25.35ZM1001.79 567.92c1.93-.89 3.88-1.76 5.84-2.59.04 7.4.18 14.81-.1 22.22-2.17-6.47-3.84-13.09-5.74-19.63Z"/><path d="M292.21 577.25c3.74-.27 7.49-.21 11.22-.57.41 1.45.58 2.94.85 4.42-1.12-4.23-5.96-3.68-9.17-2.37 3.23 13.49 5.41 27.22 8.23 40.81 7.78 39.59 15.33 79.23 23.27 118.79.49.06 1.46.17 1.95.23.33.69.97 2.06 1.29 2.75 131.42 16.39 262.78 33.3 394.18 49.73 8.34-.35 16.59-1.99 24.91-2.84 124.08-15.68 248.15-31.38 372.23-47.04 8.88-45.94 17.99-91.83 26.8-137.77l1.75.08c-8.98 46.66-18.07 93.29-27.29 139.9-130.11 16.36-260.2 32.88-390.3 49.29-4.06.45-8.11 1.43-12.21.97-131.74-16.65-263.47-33.33-395.21-49.99-10.93-55.44-21.66-110.93-32.5-166.39Z"/><path d="M419.37 785.03c4.26.31 8.49.83 12.72 1.41 94.67 11.99 189.35 23.94 284.02 35.94 3.61.39 7.21 1.25 10.87.88 99.5-12.58 199-25.22 298.52-37.69-5.33 8.15-11.79 15.47-18.1 22.87-53.6 62.02-127.91 105.92-208.29 122.28-53.66 11.15-109.77 10.41-163.13-2.12-72.28-16.78-139.06-55.82-189.66-110.04-4-4.26-8.19-8.44-11.47-13.3-1.22-2.18-2.96-3.99-4.78-5.67l-.12-.14c-3.16-5.07-7.11-9.57-10.58-14.42Z"/></g><path fill="#030d16" opacity=".12" d="M1440 .99h1V1090h-1.01c.02-363 0-726 .01-1089.01Z"/><g fill="#ccc"><path d="M714.9 47.81c4.83-4.79 13.38-3.38 16.99 2.21 1.97 3.83 2.19 8.8-.57 12.31-1.74 2.63-4.82 3.7-7.67 4.63 5.62 50.8 11.25 101.6 16.93 152.4.6-1.08 1.19-2.17 1.78-3.26 19.97-36.68 39.85-73.41 59.78-110.11 1.69-3.18 3.56-6.26 5.03-9.55-6.58-3.14-7.67-12.84-2.22-17.55 4.79-4.8 13.31-3.47 16.97 2.06 2.63 4.65 1.94 11.09-2.38 14.48-2.45 2.3-5.9 2.47-9.05 2.75-7.61 43.42-15.37 86.8-22.94 130.22 1.46-1.75 2.92-3.51 4.32-5.32 25.07-30.37 49.93-60.92 74.92-91.35 2.76-3.47 5.73-6.78 8.32-10.38-2.82-2.64-4.78-6.55-3.7-10.49.91-5.73 6.95-10.01 12.67-8.83 3.19.41 5.8 2.58 7.7 5.06 2.66 4.83 1.63 11.53-3.06 14.73-2.99 2.4-7.06 2.36-10.61 1.53-16.65 40.52-32.9 81.22-49.38 121.81-70.32.03-140.64.04-210.96 0-.43-.01-1.29-.02-1.72-.03-15.97-39.51-31.96-79.01-47.96-118.51-.46-1.11-.9-2.22-1.35-3.33-3.47.9-7.22.84-10.36-1.08-5.63-3.81-6.61-12.7-1.43-17.3 4.79-4.88 13.38-3.54 17.08 2.02 1.11 2.5 2.02 5.28 1.47 8.05-.43 2.59-2.39 4.48-3.65 6.67.77 1.15 1.67 2.22 2.57 3.28l.51.6c3 3.59 5.92 7.25 8.93 10.84.28.38.83 1.14 1.11 1.52.74 1.24 1.67 2.34 2.73 3.34.36.39 1.08 1.18 1.43 1.57 2.87 3.6 5.82 7.14 8.77 10.68l.24.34c.97 1.75 2.26 3.28 3.73 4.64 1.4 1.71 2.67 3.55 4.22 5.15.04.05.13.15.18.2l.79.97c.95 1.58 2.1 3.04 3.42 4.35 1.41 1.65 2.74 3.39 4.21 5.01 1.76 2.06 3.46 4.17 5.19 6.25.3.36.88 1.08 1.18 1.43 2.3 2.82 4.59 5.65 6.9 8.47.28.34.84 1.03 1.12 1.37 1.57 1.96 3.24 3.84 4.81 5.8l.22.31c.71 1.28 1.63 2.43 2.71 3.43.68.68 1.3 1.43 1.85 2.23.36.39 1.06 1.19 1.41 1.58.19.21.56.63.75.84 2.22 2.95 4.65 5.75 6.99 8.61l.21.31c.64 1.23 1.53 2.32 2.53 3.3.29.37.89 1.09 1.19 1.45.6.97 1.33 1.87 2.24 2.59.21.22.62.64.83.86 1.39 1.73 2.73 3.5 4.11 5.25-.04-.33-.13-.98-.17-1.3-2.07-14.75-5.11-29.36-7.55-44.06l-14.46-81.93c-.18-.97-.36-1.93-.53-2.9-2.48-.05-4.98-.31-7.27-1.3-3.89-2.42-6.5-7.05-5.52-11.68.84-5.75 6.83-10.1 12.57-9 3.24.37 5.88 2.55 7.83 5.03 1.35 2.97 2.17 6.46.9 9.61-.88 2.61-3.09 4.37-5.11 6.09 22.24 40.77 44.27 81.65 66.56 122.39.07-.98.16-1.96.27-2.93 5.79-49.04 10.92-98.17 16.47-147.24l.16-2.04c-1.34-.53-2.71-1-4.03-1.52-6.5-3.21-7.66-12.96-2.15-17.63Z"/><path d="M522.44 182.37c1.87-.59.27 2.95 2 3.27-.18.08-.54.25-.72.33.84 9.86 3.58 19.43 6.8 28.74-46.88 27.8-87.64 65.75-118.74 110.5-2.25.01-4.5.05-6.73.34 3.96.46 7.9-.46 11.85-.62 96.67-5.87 193.33-11.9 290-17.83 7.02-.3 14.05-1.3 21.09-.59 93.2 5.76 186.4 11.47 279.6 17.21 10.78.51 21.55 1.6 32.34 1.85-2.29-.15-4.59-.26-6.86-.35-12.46-17.64-26.12-34.42-41.26-49.82-.03-.04-.11-.11-.14-.14-7.77-7.84-15.71-15.53-24.26-22.52-15.8-13.36-32.56-25.61-50.32-36.25-1-.65-1.95-1.34-2.89-2.02 4-10.39 6.46-21.38 7.29-32.49 36.14 20.14 69.22 45.82 97.63 75.91 8.09 7.92 14.84 17.06 22.51 25.38 7.68 10.07 15.6 20.01 22.34 30.76 2.93 4.46 5.81 8.95 8.78 13.38-3.28-.04-6.55-.06-9.81.06 3.4.16 6.8.08 10.21.19 51.16 3.52 102.4 6.05 153.54 9.76-.13.58-.38 1.73-.51 2.3-10.51 53.22-20.7 106.51-31.24 159.72-.58.12-1.73.35-2.31.47-.22 3.91.05 7.83 0 11.76-3.76 19.49-7.76 38.94-11.31 58.47-1.2-14.36.1-28.84-.69-43.24-.67-7.26-3.12-14.9-8.87-19.74-.92-.89-1.84-1.75-2.73-2.63 9.22-46.61 18.22-93.26 27.33-139.89.16-.91.34-1.81.53-2.71-156-9.63-312-19.18-468-28.82-7.31-.77-14.62.17-21.91.54-153.03 9.42-306.07 18.84-459.1 28.28 9.29 47.76 18.63 95.52 27.94 143.28 1.25 6.25 2.31 12.53 3.85 18.72-4.82 19.45-8.59 39.15-13.39 58.6-4.39-18.49-7.17-37.36-11.37-55.91-.25-8.03-.1-16.07-.13-24.11-.69-.06-2.07-.16-2.76-.22-.07-.49-.22-1.46-.29-1.95-.37-.24-1.1-.73-1.47-.97-.19-.37-.57-1.1-.76-1.47-10.49-53.55-20.89-107.12-31.37-160.68 41.26-2.58 82.53-5.09 123.79-7.64 13.34-.61 26.64-2.12 40-2.02-3.24-.24-6.48-.23-9.72-.22 16.86-27.36 36.64-52.97 59.4-75.69 7.89-8.48 16.84-15.86 25.34-23.71 7.36-6 14.81-11.91 22.32-17.72 9.73-6.63 19.12-13.77 29.36-19.62 4.63-2.69 9.1-5.68 13.82-8.23M387 326.47c3.95.99 8.08.89 12.05.08-3.95-1.02-8.08-.87-12.05-.08m658.89-.07c3.68 1.1 7.59.79 11.35.2-3.68-1.2-7.62-.78-11.35-.2Z"/><path d="M617.17 252.83c28.28-.51 56.57-.1 84.86-.23 41.86.13 83.72-.27 125.57.21-.01.94-.01 1.89.01 2.85v22.08c-1.96.01-3.91.01-5.84.02-.02 5.92 0 11.84-.02 17.76-65.31.02-130.62-.03-195.93.03-.67.01-2.01.04-2.69.05-.19-4.98-.09-9.97-.09-14.96.01-.71.02-2.12.03-2.83-1.11-.02-2.23-.04-3.33-.04-.64 0-1.91-.01-2.55-.01-.04-8.31-.01-16.62-.02-24.93ZM706.04 339.27c6.31-.27 12.61-1.09 18.94-.82 155.21 9.54 310.42 19.14 465.64 28.62l-.48 2.66c-8.46 43.97-17.26 87.87-25.59 131.85a44.013 44.013 0 0 0-7.55-2.36c7.89-40.57 15.84-81.13 23.72-121.69.14-.64.42-1.93.55-2.57-128.68-7.95-257.37-15.84-386.05-23.77-24.73-1.4-49.44-3.27-74.18-4.39-152.5 9.33-305 18.76-457.49 28.16 8.11 41.49 16.1 83.01 24.32 124.48-.96.08-1.91.18-2.86.31-.93 3.82-1.91 7.63-2.79 11.46-9.4-48.02-18.73-96.06-28.13-144.08 150.65-9.33 301.3-18.56 451.95-27.86Z"/><path d="M639.7 406.69c15.72-12.94 36.32-18.32 56.35-19.05 18.23-.66 37.15 1.34 53.63 9.69 8.32 4.18 15.56 10.3 21.44 17.49 15.61 19.68 20.83 45.23 23.4 69.65-14 3.81-28.01 7.6-42.02 11.39-.66.14-1.98.42-2.63.57-1.52-17.66-4.3-35.71-12.8-51.51-1.24-2.16-2.68-4.19-4.34-6.03-7.05-7.6-17.58-10.86-27.72-10.94-11.04.03-22.78 1.38-32.02 7.94-7.43 5.07-11.83 13.59-13.34 22.3-2.48 15.55-.53 32.49 8.73 45.62-6.94 5.98-9.39 15.38-9.55 24.21-.26 12.97-.06 25.93-.1 38.9-5.18-5.09-11-9.47-15.96-14.78 8.06-5.03 11.07-15.04 10.52-24.1-.42-6.84-1.78-14.49-7.08-19.33-2.71-1.91-4.45-5.01-7.58-6.35-7.76-3.77-16.62-2.58-24.96-2.85-2.36-17.46-3.09-35.47 1.18-52.71 3.72-15.56 12.26-30.1 24.85-40.11ZM401.3 407.25c17.55-.06 35.11-.01 52.66-.02 18.73-.08 37.81-.39 55.99 4.8 13.47 3.57 26.34 10.64 35.08 21.7 14.36 18.3 18.15 42.45 18.63 65.09-8.12-.59-17.21.55-23.25 6.56-6.69 6.61-7.01 17.16-4.68 25.73 1.37 5.47 5.74 9.22 9.32 13.27l-.63-.52c5.68 5.74 12.03 10.86 18.47 15.72.25.23.74.69.99.92-.1 9.61-.04 19.22-.05 28.83-3.29.14-7.14.24-9.78-2.01-2.07-5.17-3.41-10.54-4.09-16.06-1.31-.3-2.07.24-2.27 1.6-.3-1.56-.59-3.13-.87-4.68-4.2 1.04-8.38 2.14-12.58 3.19.15 8.72 3.24 17.45 9.71 23.48 4.82 5.9 12.48 8.35 19.87 8.65.17 22.37.22 45.22-6.61 66.76-4.69 15.27-13.27 30-26.76 39.05-16.19 10.95-36.24 13.97-55.4 14.23-23.57.13-47.14-.01-70.7.07-1.01.01-2.01.02-3.01.05-.07-70.3 0-140.61-.04-210.91h2.82c.08 28.81-.02 57.62.04 86.43.72.08 2.16.24 2.87.31.07.98.14 1.95.22 2.94 4.79-.05 9.58-.04 14.38-.02.14-29.88 0-59.76.07-89.64 6.18-.05 12.36.07 18.55-.09.07-1.76.15-3.53.24-5.27 2.96 4.66 4.7 10 6.31 15.26l-1.26-.75c0 56.67-.01 113.33 0 170 .72-.01 2.16-.01 2.88-.01 14.51-.33 29.42 1.24 43.55-2.87 8.96-2.51 16.47-9.11 20.51-17.44 4.32-8.57 5.06-18.33 5.8-27.74 1.4-25.6.85-51.25.96-76.87-.04-19.98.09-39.96-.06-59.94-.52-12.23-.32-24.57-2.8-36.61-1.26-6.26-3.48-12.52-7.63-17.47-6.44-7.95-16.81-11.05-26.62-12.11-12.16-1.23-24.4-.62-36.59-.77-.01 19.78.01 39.55-.01 59.33-2.15 0-4.3-.02-6.45-.03.13.77.39 2.29.51 3.06l-2.2-.16c-.06-.64-.19-1.92-.25-2.56-11.95-.49-23.92.03-35.87-.24.09-30.75.04-61.49.03-92.24ZM881.28 407.21c20.92-.03 41.85-.01 62.78-.01 17.93.07 36.25 1.71 53 8.57 9.21 3.73 17.62 9.49 24.1 17.07 13.45 16.31 16.8 38.41 16.66 58.95-.22 2.53-.46 5.07-.59 7.62-9.81.41-19.63-.13-29.44.26-.16 20.49.06 40.98-.12 61.46-2.9 1.34-5.83 2.61-8.76 3.88 2.93 10.52 6.03 21 8.86 31.56.24 1.01.52 2.03.84 3.05 11.89 41.26 23.43 82.62 35.19 123.92-13.5.03-27-.04-40.49.04-.52 0-1.56.02-2.08.03-13.59-48.51-27.16-97.02-40.59-145.57-.34-1.65-1.15-3.06-2.77-3.69.25-6.3-.16-12.61.3-18.9 3.06.05 6.12.04 9.18-.06 3.89 13.19 7.78 26.4 11.59 39.62.71 2.77 2.58 4.98 4.24 7.24 4.6.27 9.21.1 13.83.13-4.21-16.72-9.8-33.08-14.41-49.7.79-.95 2.05-1.35 3.08-2 4.4-2.26 7.22-6.78 8.43-11.46 1.68-7.99 1.83-16.55-1.37-24.2 2.89-14.83 3.49-30.22.79-45.13-1.24-6.36-3.3-12.83-7.55-17.85-5.01-5.96-12.34-9.47-19.85-11.07-13.33-2.95-27.08-1.88-40.62-2.08-.02 34.87-.01 69.73-.01 104.6.73-.01 2.18-.02 2.9-.03 4.03-.04 8.05-.02 12.09-.07.08 10.59.13 21.18-.05 31.77-4.98 0-9.97-.01-14.94.02.02 49.45-.01 98.9.01 148.36-13.69.06-27.38-.04-41.07.04-1.05 0-2.1.02-3.14.04-.03-40.15-.04-80.29 0-120.43 9.72-.95 18.94-8.2 20.46-18.13 2.49-11.11-2.8-22.6-11.08-29.9-3.95-3.59-7.74-7.35-11.74-10.88.58.23 1.76.69 2.34.92-.01-10.54.01-21.08.02-31.62l-.12-.49c2.71 4.23 3.42 9.32 4.09 14.2.56-.05 1.69-.17 2.26-.22.33 1.16.68 2.34 1.04 3.52 3.97-1.28 8.05-2.23 12.1-3.27-.88-7.59-2.92-15.73-8.95-20.92-3.17-3.16-6.86-5.92-11.36-6.72l.78-.62c.32-30.6.05-61.23.14-91.85Z"/><path d="M551.89 516.94c2.51-3.95 7.63-4.49 11.9-4.68.08 9.87.02 19.74.03 29.61-3.55-2.67-7.24-5.21-10.2-8.54-3.29-4.72-4.36-11.13-1.73-16.39ZM617.02 512.4c5.81-.05 11.67.01 17.32 1.5l.63.13c1.6 6.52 2.05 13.38.89 20.01-.46 2.67-2.07 4.89-4.02 6.7-1.09-2.05-2.27-4.05-3.62-5.93-4.6-6.42-7.99-13.62-10.66-21.02l-.54-1.39ZM1025.31 512.78c3.68-.06 7.36-.06 11.05-.04-1.48 10.5-4.36 21.05-9.98 30.12-.25.01-.76.01-1.02.02-.07-10.04.02-20.07-.05-30.1ZM1154.39 512.49c2.02.32 4.02.79 6.06 1.14l.38.07c.26.66.51 1.34.75 2.03-4.4 23.72-9.15 47.38-13.8 71.06l-.68 2.6c-2.27-.34-4.5-.85-6.65-1.59l-.05-.44-.12-1.19c.17-1.73.43-3.44.75-5.14 4.47-22.84 8.93-45.68 13.36-68.54ZM676.41 534.92c.16-6.21-.32-12.92 2.99-18.47 6.89 6.93 14.6 12.99 21.85 19.54.24 11.01.04 22.06.09 33.09-.34 5.62.09 11.94-3.46 16.7-3.56 4.17-9.54 3.86-14.51 3.85-.33-.49-1.01-1.46-1.35-1.94.03-.15.07-.45.09-.6-3.35-1.22-5.52-4.52-5.37-8.06-.7-14.69-.13-29.41-.33-44.11ZM293.69 529.44c.36.39 1.08 1.18 1.44 1.57l-.52.84c-.88.81-1.18 2.53.19 3.05.41.26 1.21.79 1.61 1.05l-.77.93c-.95.74-1.19 2.54.13 3.06.38.25 1.15.75 1.53 1l-.68.99c-.9 1.02-.91 2.47-.58 3.73.27-.1.82-.31 1.1-.41l.86-.32c-.13.5-.4 1.49-.53 1.98-.45 1.2-.87 2.52-.46 3.81.29-.11.87-.34 1.16-.46l.77-.32c-.12.5-.35 1.51-.47 2.01-.42 1.2-.89 2.49-.48 3.78.3-.1.89-.3 1.18-.4l.8-.3c-.14.48-.4 1.42-.53 1.89-.5 1.22-1.2 3.17.43 3.9l.91 1.35c-.16.49-.5 1.48-.67 1.98-2.45.18-4.92.18-7.38.07-.14-.57-.43-1.73-.57-2.31-.95-4.32-1.92-8.65-2.33-13.05 1.26-6.48 2.41-12.98 3.86-19.42ZM1152.54 589.25c3.4-16.63 6.31-33.36 9.92-49.95.77 1.79.98 3.75.93 5.69-.12 8.64.04 17.28-.09 25.91-.3 4.84-.21 10.11-3.01 14.3-1.7 2.61-4.79 3.72-7.75 4.05Z"/><path d="M718.86 551.59c4.04 3.02 7.42 6.84 11.61 9.67-.05 11.25.05 22.5-.07 33.75.21 1.34-.44 3.13.63 4.2 4.75.39 9.53-.15 14.28.34-3.97.18-7.95.14-11.92.1.03.69.09 2.06.11 2.75 4.77-.02 9.54-.01 14.31-.02.2-8.36-.24-16.74.29-25.09 3.69 3.5 7.21 7.19 10.95 10.65.54 1.34 1.45 2.46 2.64 3.31.8.82 1.57 1.69 2.36 2.55 2.81 3.35 5.56 6.77 8.32 10.18 9.62 12.33 18.29 25.85 22.63 41.02 2.25 5.96 3.07 12.3 4.26 18.53 2.12 17.21 1.69 35.08-3.99 51.62-5.41 16.37-16.53 30.66-30.81 40.28-15.28 10.54-34.04 15.05-52.44 15.19-23.5.36-48.31-5.36-66.12-21.52-13.49-12.35-22.74-28.78-28.03-46.17-4.21-13.55-6.33-27.68-7.03-41.83 15.15-4.02 30.25-8.21 45.4-12.2 1.69-.07 1.08 1.92 1.37 2.95.96 14.9 3.66 29.75 8.72 43.83 3.19 7.73 6.48 15.68 12.51 21.69 8.7 9.07 21.87 12.52 34.13 11.8 9.51-.31 19.47-2.89 26.53-9.6 7.41-6.78 10.84-16.87 11.77-26.66.87-10.37.22-20.99-2.81-30.99-4.45-15.16-15.59-26.97-26.19-38.17-7.41-7.4-15.06-14.58-23.18-21.2 7.21-1.35 13.6-6.27 16.46-13.06 5.28-11.93 2.66-25.29 3.31-37.9ZM881.35 565.47c5.29 5.98 6.5 17.05-.1 22.54.09-7.51-.06-15.03.1-22.54Z"/><path d="M284.36 577.24h5.48c10.88 55.36 21.58 110.75 32.46 166.11.61.07 1.81.22 2.41.29 131.74 16.66 263.47 33.34 395.21 49.99 4.1.46 8.15-.52 12.21-.97 130.1-16.41 260.19-32.93 390.3-49.29 9.22-46.61 18.31-93.24 27.29-139.9l-1.75-.08c6.26.17 12.77-.05 18.59-2.62 5.34-2.35 9.58-7.04 11.19-12.67-11.79 59.77-23.31 119.6-35.06 179.38-23.93 3.14-47.99 5.74-71.85 9.3-5.37 7.09-9.64 14.97-15 22.09-4.76 6.22-9.33 12.58-14.17 18.73-5.38 6.32-10.74 12.67-16.19 18.93-6.03 6.29-12.05 12.58-18.19 18.76-6.41 5.88-12.78 11.8-19.3 17.56-7.06 5.63-13.98 11.46-21.19 16.89-8.52 5.85-16.69 12.22-25.59 17.5-54.63 34.8-117.72 56.25-182.26 61.78-12.28 1.42-24.67 1.34-37 1.76-11.66-.47-23.37-.33-34.98-1.65-64.12-5.37-126.9-26.31-181.34-60.6-10.63-6.27-20.47-13.75-30.53-20.88-.2-.16-.62-.49-.82-.65-5.41-4.47-10.96-8.77-16.37-13.23-6.07-5.43-12.02-11-18.1-16.42a2.91 2.91 0 0 1-.18-.16c-5.17-4.78-9.87-10.02-14.82-15.01-7.57-7.46-14.06-15.89-21.06-23.85-10.02-12.69-19.62-25.71-28.13-39.47-.83-1.26-1.81-2.6-3.48-2.53-22.56-2.84-45.11-5.75-67.68-8.54-.55-.05-1.66-.16-2.21-.22-11.11-54.99-21.57-110.12-32.37-165.18 3.13 0 6.26-.01 9.39-.03 1.74-8.36 3.33-16.76 5.09-25.12m131.88 204.67c4.64 5.78 8.66 12.1 13.71 17.54l.12.14c1.39 2.04 3.05 3.9 4.78 5.67 3.28 4.86 7.47 9.04 11.47 13.3 50.6 54.22 117.38 93.26 189.66 110.04 53.36 12.53 109.47 13.27 163.13 2.12 80.38-16.36 154.69-60.26 208.29-122.28 6.31-7.4 12.77-14.72 18.1-22.87l.27-.03c.93-1.23 1.85-2.46 2.8-3.67-102.16 12.87-204.31 25.99-306.49 38.63-101.97-12.67-203.89-25.76-305.84-38.59Z"/><path d="M295.11 578.73c3.21-1.31 8.05-1.86 9.17 2.37.12.46.36 1.38.47 1.83-.83.92-1.6 2.58-.55 3.64.29-.15.88-.45 1.17-.6.1.48.31 1.46.41 1.94-1.62.98-1.3 3.3.4 3.99.1.25.29.75.38.99-1.14 1.26-1.2 3.32.55 4.07.3.65.89 1.94 1.18 2.58l-1.02-.04c8.78 43.67 16.88 87.48 25.8 131.11l2.26.32c125.52 15.83 251.02 31.76 376.54 47.62 4 .44 8 1.37 12.06 1.07 129.3-16.28 258.58-32.72 387.88-48.98 8.57-43.36 16.95-86.76 25.42-130.14 2.38 1.05 4.9 1.71 7.43 2.33-8.72 45.16-17.59 90.29-26.38 135.44-121.72 15.39-243.43 30.77-365.15 46.15-10.69 1.13-21.32 3.14-32.05 3.73-130.85-16.43-261.67-33.13-392.52-49.59-.49-.06-1.46-.17-1.95-.23-7.94-39.56-15.49-79.2-23.27-118.79-2.82-13.59-5-27.32-8.23-40.81Z"/></g><path d="M731.89 50.02c4.95 3.41 5.96 11.23 1.84 15.68-1.77 2.3-4.56 3.3-7.22 4.13 5.38 48.05 10.66 96.11 16.02 144.15-.04.53-.12 1.59-.17 2.12-.59 1.09-1.18 2.18-1.78 3.26-5.68-50.8-11.31-101.6-16.93-152.4 2.85-.93 5.93-2 7.67-4.63 2.76-3.51 2.54-8.48.57-12.31ZM641.83 81.08c3.84 2.71 5.51 8.22 3.72 12.59-.93 2.57-3.21 4.25-5.1 6.08 20.02 36.33 39.62 72.91 59.51 109.31 1.42 2.43 2.32 5.26 4.49 7.18-.11.97-.2 1.95-.27 2.93-22.29-40.74-44.32-81.62-66.56-122.39 2.02-1.72 4.23-3.48 5.11-6.09 1.27-3.15.45-6.64-.9-9.61ZM821.92 80.95c4.34 3.1 5.82 9.43 3.15 14.09-2.12 4.18-6.96 6.25-11.5 5.76-7.51 40.7-14.49 81.52-21.7 122.28-1.4 1.81-2.86 3.57-4.32 5.32 7.57-43.42 15.33-86.8 22.94-130.22 3.15-.28 6.6-.45 9.05-2.75 4.32-3.39 5.01-9.83 2.38-14.48ZM572.03 106.93c3.15 2.22 4.72 6.21 4.5 10-.27 3.11-2.48 5.5-4.11 8-.9-1.06-1.8-2.13-2.57-3.28 1.26-2.19 3.22-4.08 3.65-6.67.55-2.77-.36-5.55-1.47-8.05Z"/><path d="M891.78 107.09c5.38 3.63 5.81 12.32.94 16.57-2.97 3.2-7.68 3.67-11.7 2.52-16.65 40.44-32.91 81.06-49.27 121.62-8.9.93-17.85-.34-26.76.19-39.33.32-78.65-.12-117.95.06-14.69.11-29.36-.41-44.04.11-8.04-.5-16.08.45-24.11-.36-.38-.88-.75-1.76-1.12-2.64 70.32.04 140.64.03 210.96 0 16.48-40.59 32.73-81.29 49.38-121.81 3.55.83 7.62.87 10.61-1.53 4.69-3.2 5.72-9.9 3.06-14.73ZM524.44 185.64l1.57-.68c1.11 9.47 2.67 18.96 5.91 27.97.71 2.03 1.97 5.15-.86 6.07-44.81 26.95-83.97 63.22-114.16 105.93-3.95.16-7.89 1.08-11.85.62 2.23-.29 4.48-.33 6.73-.34 31.1-44.75 71.86-82.7 118.74-110.5-3.22-9.31-5.96-18.88-6.8-28.74.18-.08.54-.25.72-.33ZM636.67 203.43l.94-.12.73.82-.26.88c-.35-.39-1.05-1.19-1.41-1.58ZM649.75 219.52c1.41-1.19 3.61 1.34 2.24 2.59-.91-.72-1.64-1.62-2.24-2.59ZM1226.18 339.72c1.12.23 2.25.46 3.4.7-10.62 52.94-20.75 105.98-31.11 158.97-1.2-.02-2.37 0-3.53.05 10.54-53.21 20.73-106.5 31.24-159.72ZM1190.14 369.73c.85.05 2.54.13 3.39.18-8.55 44.42-17.38 88.8-25.9 133.24-1.02-.57-2.05-1.09-3.08-1.57 8.33-43.98 17.13-87.88 25.59-131.85ZM771.12 414.82c2.74 1.97 4.48 4.94 6.4 7.65 12.87 19.09 17.48 42.27 19.88 64.79-10.19 2.91-20.45 5.57-30.67 8.37-4.64 1.17-9.18 2.78-13.92 3.44-.08-.81-.24-2.41-.31-3.21 14.01-3.79 28.02-7.58 42.02-11.39-2.57-24.42-7.79-49.97-23.4-69.65ZM672.99 435.89c9.24-6.56 20.98-7.91 32.02-7.94 10.14.08 20.67 3.34 27.72 10.94-8.97-6.95-20.8-9.03-31.87-7.79-10.6.55-21.81 3.49-29.38 11.37-7.11 7.22-9.62 17.69-9.88 27.53-.41 11.47 1.43 23.38 7.53 33.3-.19.12-.56.38-.75.51-9.26-13.13-11.21-30.07-8.73-45.62 1.51-8.71 5.91-17.23 13.34-22.3ZM545.03 433.73c2.77 1.95 4.44 4.99 6.36 7.71 10.98 17.06 14.53 37.81 15.03 57.77-.69-.09-2.07-.29-2.76-.39-.48-22.64-4.27-46.79-18.63-65.09ZM445.54 440.09c12.19.15 24.43-.46 36.59.77 9.81 1.06 20.18 4.16 26.62 12.11-8.22-7.61-19.96-9.25-30.72-9.73-9.87-.6-19.77-.51-29.64-.22.07 18.8.01 37.6.04 56.4h-2.9c.02-19.78 0-39.55.01-59.33ZM841.75 502.38l2.82.12c-.02 3.39-.02 6.78.01 10.18-6.2.11-12.39.02-18.57.07-.34 29.85-.06 59.72-.17 89.58-4.78.12-9.55.02-14.32.08l-.08-2.83c3.95.05 7.91.04 11.87-.01-.07-29.88.01-59.75-.04-89.62 6.17-.06 12.34-.01 18.51-.03-.01-2.52-.01-5.03-.03-7.54ZM1303.75 502.38c.71.03 2.12.09 2.82.11-.02 3.4-.02 6.8.01 10.2-6.2.09-12.4.02-18.58.06-.34 29.84-.06 59.7-.14 89.55-4.78.19-9.56.03-14.33.11-.03-.71-.08-2.12-.1-2.83 3.95.04 7.91.04 11.87 0-.04-29.89 0-59.77-.01-89.65 6.16-.01 12.32 0 18.49-.01-.02-2.52-.01-5.03-.03-7.54ZM299.84 502.39c.53.1 1.59.31 2.11.41 6.34 27 12.18 54.16 18.34 81.22 1.25 6.11 3.07 12.13 3.73 18.35-4.07.02-8.15.01-12.22.07-.41-.29-1.25-.87-1.66-1.15 8.18 43.25 16.8 86.43 25.19 129.64l-2.26-.32c-8.92-43.63-17.02-87.44-25.8-131.11l1.02.04c4.46.14 8.92.05 13.38.06-7.32-32.4-14.54-64.81-21.83-97.21ZM476.06 562.26c6.96-19.95 13.96-39.89 20.86-59.86.94.03 2.82.08 3.76.11-6.6 18.82-13.15 37.66-19.72 56.49-1.23 3.58-2.95 7.13-2.75 11.02.06 9.3-.02 18.6.07 27.91-.22 1.41.42 3.47-1.03 4.39-4.2.26-8.41-.04-12.61.11l-.84-2.84c3.88.04 7.76.02 11.64.01-.02-10.56.04-21.12-.03-31.67-.01-1.91-.01-3.86.65-5.67ZM1048.56 502.44c.71.02 2.12.07 2.83.09-.03 3.37-.03 6.74.01 10.11-3.9.13-7.8.11-11.69.08-1.23 10.44-4.13 20.61-8.52 30.15-1.61-.02-3.23-.03-4.81-.01 5.62-9.07 8.5-19.62 9.98-30.12-3.69-.02-7.37-.02-11.05.04.07 10.03-.02 20.06.05 30.1h-2.82c.03-10.98 0-21.97.02-32.96 8.68 0 17.36.02 26.04-.01-.01-2.49-.02-4.98-.04-7.47ZM891.72 506.4c6.03 5.19 8.07 13.33 8.95 20.92-4.05 1.04-8.13 1.99-12.1 3.27-.36-1.18-.71-2.36-1.04-3.52 3.51-.63 6.93-1.68 10.38-2.57-.84-6.35-2.16-12.93-6.19-18.1Z"/><path d="M1171.76 507.16c5.75 4.84 8.2 12.48 8.87 19.74.79 14.4-.51 28.88.69 43.24 3.55-19.53 7.55-38.98 11.31-58.47-.43 7.22-.19 14.46-.34 21.69-1.47 3.02-1.63 6.44-2.36 9.67-14.87 75.78-29.41 151.63-44.47 227.37-23.44 2.85-46.86 5.89-70.28 8.85-1.68-.05-2.45 1.54-3.28 2.72-34.48 54.75-82.08 101.17-137.72 134.22-60.52 36.23-130.64 56.12-201.15 57.29-53.37 1.05-106.99-8.32-156.67-27.91-10.5-3.73-20.44-8.82-30.63-13.3-12.17-6.36-24.43-12.58-35.95-20.08-10.18-5.9-19.57-13.01-29.2-19.72-1.95-1.46-4.17-2.71-5.48-4.82 10.06 7.13 19.9 14.61 30.53 20.88 54.44 34.29 117.22 55.23 181.34 60.6 11.61 1.32 23.32 1.18 34.98 1.65 12.33-.42 24.72-.34 37-1.76 64.54-5.53 127.63-26.98 182.26-61.78 8.9-5.28 17.07-11.65 25.59-17.5 7.21-5.43 14.13-11.26 21.19-16.89 6.52-5.76 12.89-11.68 19.3-17.56 6.14-6.18 12.16-12.47 18.19-18.76 5.45-6.26 10.81-12.61 16.19-18.93 4.84-6.15 9.41-12.51 14.17-18.73 5.36-7.12 9.63-15 15-22.09 23.86-3.56 47.92-6.16 71.85-9.3 11.75-59.78 23.27-119.61 35.06-179.38-1.61 5.63-5.85 10.32-11.19 12.67-5.82 2.57-12.33 2.79-18.59 2.62-8.81 45.94-17.92 91.83-26.8 137.77-124.08 15.66-248.15 31.36-372.23 47.04-8.32.85-16.57 2.49-24.91 2.84-131.4-16.43-262.76-33.34-394.18-49.73-.32-.69-.96-2.06-1.29-2.75 130.85 16.46 261.67 33.16 392.52 49.59 10.73-.59 21.36-2.6 32.05-3.73 121.72-15.38 243.43-30.76 365.15-46.15 8.79-45.15 17.66-90.28 26.38-135.44-2.53-.62-5.05-1.28-7.43-2.33-2.19-1.09-4.11-2.62-5.79-4.36 9.31 5.45 21.13 5.71 31.2 2.33 9.61-3.41 14.33-13.8 15.13-23.35.99-13 .28-26.07.51-39.1-.06-9.84-.02-20.78-6.52-28.86ZM375.08 507.53c5.58 4.83 7.7 12.83 7.68 20-4.05.86-8.03 2.02-12.05 3-.07-.86-.22-2.6-.3-3.46 3.37-.8 6.72-1.68 10.07-2.57-.82-5.9-1.98-11.97-5.4-16.97ZM580.17 507.53c5.6 4.81 7.64 12.8 7.68 19.94-4.04.97-8.04 2.08-12.08 3.05-.07-.87-.2-2.6-.27-3.46 3.39-.75 6.73-1.69 10.09-2.57-.86-5.89-1.99-11.96-5.42-16.96ZM646.21 508.71c5.3 4.84 6.66 12.49 7.08 19.33.55 9.06-2.46 19.07-10.52 24.1-8.11 4.83-17.85 3.39-26.83 3.68-.22 15.51.01 31.02-.12 46.54-4.79.06-9.57.01-14.34.04-.01-.7-.02-2.12-.02-2.82 3.94.05 7.89.05 11.85-.03-.09-15.53-.02-31.06-.04-46.58 8.12-.28 16.74 1.06 24.37-2.45 6.28-2.71 10.66-8.8 12.01-15.41 1.83-8.82.88-18.41-3.44-26.4ZM710.33 507.83c5.54 4.64 7.58 12.23 8.31 19.15.44 8.19.11 16.41.22 24.61-.65 12.61 1.97 25.97-3.31 37.9-2.86 6.79-9.25 11.71-16.46 13.06-7.18 1.41-14.78 1.2-21.74-1.18-2.85-1.21-5.9-2.56-7.68-5.22 6.52 4.23 14.68 4.9 22.25 4.27 7.17-.59 14.66-3.54 18.67-9.82 5.86-8.66 5.65-19.56 5.68-29.58-.04-10 .05-19.99-.04-29.99-.17-8.01-1.02-16.54-5.9-23.2ZM777.21 507.91c7.77 6.56 8.99 17.75 7.56 27.23-.41 7.35-4.91 14.8-12.23 17 4.49 16.86 10.15 33.42 14.59 50.3-4.49-.36-9.05.34-13.49-.44-.37-.59-1.11-1.78-1.48-2.38 4.13.01 8.27-.03 12.42-.01-5.02-16.67-9.85-33.39-14.96-50.02 6.06-2.11 10.6-7.43 11.83-13.71 1.7-9.33 1.95-20.14-4.24-27.97Z"/><path d="M987.21 507.85c2.2 2.08 4.11 4.48 5.53 7.17 3.2 7.65 3.05 16.21 1.37 24.2-1.21 4.68-4.03 9.2-8.43 11.46-1.03.65-2.29 1.05-3.08 2 4.61 16.62 10.2 32.98 14.41 49.7-4.62-.03-9.23.14-13.83-.13-.26-.66-.79-1.98-1.05-2.64 4.15-.01 8.31 0 12.46 0-5.02-16.66-9.84-33.39-14.95-50.02 5.83-2.07 10.3-7.05 11.68-13.08 1.91-9.54 2.17-20.61-4.11-28.66ZM1107.31 507.76c5.86 4.88 7.6 12.93 7.98 20.21.46 8.73-2.11 18.49-9.76 23.59-8.12 5.58-18.4 3.94-27.67 4.26-.03 15.48.04 30.95.02 46.43-4.75.24-9.51.18-14.25.09-.07-.69-.22-2.07-.29-2.76 3.97.04 7.96.04 11.95 0-.04-15.54-.01-31.07-.02-46.61 8.58-.28 17.82 1.19 25.69-3.1 7-3.6 10.81-11.37 11.38-18.99.61-7.91-.3-16.49-5.03-23.12ZM1239.23 507.92c7.73 6.54 8.98 17.69 7.54 27.13-.36 7.36-4.85 14.87-12.18 17.05 4.31 16.87 10.22 33.34 14.43 50.24-4.65-.03-9.32.31-13.95-.15-.18-.65-.55-1.95-.73-2.6 4.08.02 8.16.01 12.24.02-5.02-16.66-9.84-33.39-14.95-50.02 5.82-2.06 10.3-7.03 11.67-13.07 1.89-9.5 2.21-20.58-4.07-28.6ZM343.63 514.82c1-2.31 3.34-3.57 5.58-4.43 4.81-1.39 10.62-1.3 14.38 2.47-5.54-.66-12.38-1.22-16.41 3.44-2.97 4.9-2.03 11.17.49 16.06-4.79-4.36-6.47-11.53-4.04-17.54ZM613.23 542.86c.13-11.1-.09-22.21.12-33.3 7.01.57 15.58-1.36 20.99 4.34-5.65-1.49-11.51-1.55-17.32-1.5l.54 1.39c-.4-.29-1.21-.85-1.62-1.14-.2 10.09-.04 20.19-.08 30.28-.66-.02-1.97-.05-2.63-.07ZM680.14 511c5.95-2.27 13.68-2.08 18.38 2.73-6.27-1.62-14.32-2.63-19.12 2.72-3.31 5.55-2.83 12.26-2.99 18.47.2 14.7-.37 29.42.33 44.11-.15 3.54 2.02 6.84 5.37 8.06-.02.15-.06.45-.09.6-2.76.84-4.99-1.61-6.12-3.82-2.12-4.28-2.03-9.23-2.25-13.89.04-14.64-.12-29.29.08-43.93.29-5.38.69-12.54 6.41-15.05ZM745.3 542.49c0-10.97-.05-21.93.02-32.9 7.01.28 15.74-1.04 20.69 5.2-5.61-2.86-12.07-2.38-18.16-2.29.14 9.99-.3 19.99.26 29.97-.7.01-2.11.01-2.81.02ZM955.41 542.44c-.24-10.94-.05-21.89-.08-32.84 7.01.26 15.77-1.05 20.7 5.21-5.52-2.85-11.89-2.4-17.9-2.32-.37 9.99-.1 20-.29 30-.61-.01-1.82-.04-2.43-.05ZM1075.24 542.85c.12-11.09-.09-22.19.11-33.29 6.92.64 15.71-1.51 20.86 4.43-5.85-1.88-12.05-1.51-18.1-1.6-.54 10.16-.12 20.36-.25 30.54l-2.62-.08ZM1138.71 513.68c2.82-3.69 7.94-4.17 12.25-3.97 3.54 0 6.94 1.46 9.49 3.92-2.04-.35-4.04-.82-6.06-1.14-4.7-.23-10.47.13-13.26 4.53-2.84 4.79-2.51 10.62-2.71 15.99.01 13.02-.01 26.04.01 39.07-.02 4.75.4 9.53 1.85 14.09l.12 1.19c-4.76-4.86-4.58-12.06-4.76-18.38.01-13.32 0-26.64 0-39.97.25-5.18.03-10.86 3.07-15.33ZM1207.43 542.43c-.3-10.94-.11-21.91-.08-32.85 7.01.31 15.75-1.03 20.68 5.23-5.6-2.89-12.08-2.38-18.17-2.32-.07 10.02.25 20.03-.01 30.05-.61-.03-1.81-.08-2.42-.11ZM120.55 511.88c1.96.49 2.63 2.5 3.4 4.12 2.23 4.99 2.93 10.52 2.89 15.95.01 13.36.05 26.72-.02 40.08-.11 7.71-1.65 15.91-6.72 21.98-4.67 5.61-12.16 7.64-19.17 8.13-9.12.6-18.28-.02-27.4.37-.11-.73-.34-2.2-.45-2.93 11.81-.42 24.04 1.46 35.47-2.32 8.73-2.89 13.68-11.77 14.86-20.45 1.52-11.9.63-23.93.86-35.88-.17-9.72.82-20.09-3.72-29.05ZM1147.78 586.79c4.65-23.68 9.4-47.34 13.8-71.06 1.01 3.81 1.63 7.77 1.48 11.71-4.51 20.59-8.17 41.37-12.3 62.04l-3.51-.12c.13-.65.4-1.93.53-2.57ZM445.54 521.92l1.26.75c.54 1.92 1.13 3.85 1.73 5.77-.25 54.49-.04 108.98-.11 163.47-.72 0-2.16 0-2.88.01-.01-56.67 0-113.33 0-170ZM212.51 531.61c.96 2.29 1.95 4.57 2.91 6.88-.22 21.26.07 42.54-.16 63.81-4.13.15-8.27.09-12.41.07-.02-.7-.07-2.08-.09-2.77 3.26 0 6.53 0 9.79.02-.02-22.67.07-45.34-.04-68.01ZM745.31 599.55c-.02-15.64-.07-31.28.03-46.92 3.69.08 7.39.08 11.09.05.22.69.65 2.07.87 2.76-3.03.05-6.06.04-9.09-.05-.87 7.28-.08 14.6-.11 21.9-.53 8.35-.09 16.73-.29 25.09-4.77.01-9.54 0-14.31.02-.02-.69-.08-2.06-.11-2.75 3.97.04 7.95.08 11.92-.1ZM955.33 599.57c-.01-15.65-.08-31.3.04-46.95 3.67.1 7.36.1 11.04.06.24.67.71 2.03.94 2.71-3.06.1-6.12.11-9.18.06-.46 6.29-.05 12.6-.3 18.9 1.62.63 2.43 2.04 2.77 3.69l-2.53.16c.15 8.04-.47 16.07-.26 24.12-4.78.14-9.56.03-14.32.08-.03-.7-.07-2.11-.1-2.82 3.96.04 7.93.04 11.9-.01ZM1207.28 552.7c3.71 0 7.42 0 11.14-.02l.88 2.71c-3.05.12-6.08.12-9.11.03-.44 15.6-.29 31.27-.35 46.9-4.74.08-9.48.15-14.21.02-.07-.69-.2-2.07-.27-2.76 3.97.04 7.96.03 11.94.01-.03-15.64.02-31.27-.02-46.89ZM373.15 554.96c5.28 4.95 9.67 11.37 11.16 18.56 1.15 7.05.53 14.92-4.02 20.73-5.75 7.68-16.2 10.19-25.33 8.87-5.23-.8-10.95-2.46-14.28-6.84 11.24 6.98 28.38 6.04 36.88-4.86 4.66-5.97 5.09-14.08 3.86-21.27-1.08-5.81-4.56-10.74-8.27-15.19Z"/><path d="M578.24 554.97c6.85 6.38 12.21 15.39 11.6 25.07.25 7.46-3.32 15.07-9.7 19.11-3.97 2.82-8.84 3.68-13.54 4.45.2 20.47.57 41.22-4.27 61.25-3.76 16.01-10.83 31.97-23.42 42.98-15.87 13.75-37.54 17.93-57.95 18.52-25.51.29-51.03 0-76.54.15-.01-.72-.05-2.17-.07-2.89 23.56-.08 47.13.06 70.7-.07 19.16-.26 39.21-3.28 55.4-14.23 13.49-9.05 22.07-23.78 26.76-39.05 6.83-21.54 6.78-44.39 6.61-66.76-7.39-.3-15.05-2.75-19.87-8.65 7.15 6.01 17.45 6.89 26.24 4.75 9.31-2.24 16.68-10.89 16.82-20.57 1.04-8.95-2.83-17.57-8.77-24.06ZM890.68 555.16c8.28 7.3 13.57 18.79 11.08 29.9-1.52 9.93-10.74 17.18-20.46 18.13-8.64.97-18.4-.9-24.38-7.7l.43.3c7.52 5.22 17.52 5.99 26.17 3.53 7.86-2.3 14.3-9.12 15.52-17.31 2.01-9.7-1.61-19.8-8.36-26.85ZM998.91 565.01c2.93-1.27 5.86-2.54 8.76-3.88-.04 1.39-.05 2.79-.04 4.2-1.96.83-3.91 1.7-5.84 2.59 1.9 6.54 3.57 13.16 5.74 19.63.07 3 .07 6.01.24 9.02-2.83-10.56-5.93-21.04-8.86-31.56ZM281.56 574.43c7.06.02 14.12.04 21.18-.01.18.57.52 1.7.69 2.26-3.73.36-7.48.3-11.22.57 10.84 55.46 21.57 110.95 32.5 166.39-.6-.07-1.8-.22-2.41-.29-10.88-55.36-21.58-110.75-32.46-166.11h-5.48c-1.76 8.36-3.35 16.76-5.09 25.12-3.13.02-6.26.03-9.39.03-1.4-.01-2.8-.01-4.19 0 .04-.7.13-2.1.17-2.8 3.55.03 7.09.01 10.64.02 1.68-8.39 3.36-16.79 5.06-25.18ZM925.5 575.18c4.97-.03 9.96-.02 14.94-.02-.03.97-.04 1.94-.03 2.91-4.02-.33-8.06-.39-12.06.12.09 49.4.05 98.8.02 148.2-14.69.12-29.38-.02-44.07.07.03-.72.11-2.16.14-2.88 13.69-.08 27.38.02 41.07-.04-.02-49.46.01-98.91-.01-148.36ZM772.37 603.98c1.42.69 2.41 1.95 3.31 3.23 8.85 12.04 17.47 24.72 21.71 39.22 4.44 12.33 5.63 25.52 6 38.53-.2 15.73-3.14 31.74-10.77 45.64-8.31 15.18-21.78 27.39-37.51 34.53-11.31 5.22-23.75 7.63-36.13 8.27-16.71.58-33.81-1.38-49.25-8.08-8.74-4-17.28-9.12-23.83-16.22 17.81 16.16 42.62 21.88 66.12 21.52 18.4-.14 37.16-4.65 52.44-15.19 14.28-9.62 25.4-23.91 30.81-40.28 5.68-16.54 6.11-34.41 3.99-51.62-1.19-6.23-2.01-12.57-4.26-18.53-4.34-15.17-13.01-28.69-22.63-41.02ZM304.46 767.79c22.57 2.79 45.12 5.7 67.68 8.54 1.67-.07 2.65 1.27 3.48 2.53-4.08.04-8.12-.54-12.14-1.12-19.44-2.38-38.85-5.01-58.31-7.28-.18-.67-.53-2-.71-2.67ZM416.24 781.91c101.95 12.83 203.87 25.92 305.84 38.59 102.18-12.64 204.33-25.76 306.49-38.63-.95 1.21-1.87 2.44-2.8 3.67l-.27.03c-99.52 12.47-199.02 25.11-298.52 37.69-3.66.37-7.26-.49-10.87-.88-94.67-12-189.35-23.95-284.02-35.94-4.23-.58-8.46-1.1-12.72-1.41 3.47 4.85 7.42 9.35 10.58 14.42-5.05-5.44-9.07-11.76-13.71-17.54Z"/><g fill="#02070c"><path d="M717.05 65.44c1.32.52 2.69.99 4.03 1.52l-.16 2.04c-1.47-.99-3.3-1.72-3.87-3.56ZM572.93 125.53c3.55 3 6.66 6.79 8.93 10.84-3.01-3.59-5.93-7.25-8.93-10.84ZM587.13 142.8c3.44 3.02 6.53 6.68 8.77 10.68-2.95-3.54-5.9-7.08-8.77-10.68ZM596.14 153.82c2.03-.53 4.5 2.77 3.73 4.64-1.47-1.36-2.76-2.89-3.73-4.64ZM605.06 164.78c2.06-.88 4.45 2.49 3.42 4.35a22.383 22.383 0 0 1-3.42-4.35ZM612.69 174.14c2.44 1.3 4.06 3.79 5.19 6.25-1.73-2.08-3.43-4.19-5.19-6.25ZM619.06 181.82c2.89 2.22 5.27 5.21 6.9 8.47-2.31-2.82-4.6-5.65-6.9-8.47ZM627.08 191.66c2.07 1.47 3.97 3.34 4.81 5.8-1.57-1.96-3.24-3.84-4.81-5.8ZM638.83 205.85c2.79 2.39 5.39 5.28 6.99 8.61-2.34-2.86-4.77-5.66-6.99-8.61ZM646.03 214.77c1.68-1.13 3.74 1.9 2.53 3.3-1-.98-1.89-2.07-2.53-3.3ZM917.09 216.49c17.76 10.64 34.52 22.89 50.32 36.25-1.85-.71-3.32-2.05-4.81-3.3-13.15-10.79-27.09-20.61-41.64-29.41-1.43-1-3.4-1.66-3.87-3.54ZM652.82 222.97c1.55 1.05 2.82 2.44 3.94 3.95.04.32.13.97.17 1.3-1.38-1.75-2.72-3.52-4.11-5.25ZM827.61 255.66h2.75c.47 8.3.07 16.64.18 24.96-1.96.03-3.91.06-5.84.1-.13 5.94.18 11.88-.2 17.81-66.22-.15-132.44.02-198.66-.08-.01-.73-.01-2.17-.02-2.9 65.31-.06 130.62-.01 195.93-.03.02-5.92 0-11.84.02-17.76 1.93-.01 3.88-.01 5.84-.02v-22.08ZM1041.63 283.27c2.67 1.67 4.19 4.55 6.14 6.93 5.76 7.93 12.03 15.5 17.25 23.81 2.99 4.56 5.93 9.16 8.99 13.68l-.86-.03c-3.41-.11-6.81-.03-10.21-.19 3.26-.12 6.53-.1 9.81-.06-2.97-4.43-5.85-8.92-8.78-13.38-6.74-10.75-14.66-20.69-22.34-30.76ZM211.35 502.44c.96-.17 1.62.17 1.97 1.01 8.84 19.3 17.28 38.8 26.22 58.05l.15 4.1c-9.39-21.08-18.86-42.12-28.34-63.16ZM453.15 501.98c.53.2 1.6.58 2.13.78 4.77 13.75 8.88 27.75 14.06 41.36-.35 1.08-.69 2.17-1.01 3.28-5.17-15.1-10.1-30.29-15.18-45.42ZM759.05 587.94c.63.15 1.91.44 2.54.59.03.68.08 2.04.1 2.72-1.19-.85-2.1-1.97-2.64-3.31ZM430.07 799.59c1.82 1.68 3.56 3.49 4.78 5.67-1.73-1.77-3.39-3.63-4.78-5.67ZM457.91 873.77c5.41 4.46 10.96 8.76 16.37 13.23-3.46-1.51-5.99-4.43-9-6.61-2.46-2.21-5.58-3.77-7.37-6.62Z"/></g><g fill="#010406"><path d="M626.95 96.73c2.29.99 4.79 1.25 7.27 1.3.17.97.35 1.93.53 2.9-2.97-.36-6.32-1.35-7.8-4.2ZM145.82 502.79l1.4-.77c4.59 12.23 8.31 24.77 12.6 37.11.59 1.98 1.6 3.91 1.6 6.03-.2.52-.58 1.58-.78 2.1-4.91-14.83-9.82-29.67-14.82-44.47ZM547.86 518.02c.14-4.8 4.77-7.86 9.17-8.22 3.92-.67 8.16-.05 11.23 2.64l-1.49 1.37c-.16 10.13-.07 20.28-.02 30.41-.97-.8-1.95-1.6-2.93-2.35-.01-9.87.05-19.74-.03-29.61-4.27.19-9.39.73-11.9 4.68-2.63 5.26-1.56 11.67 1.73 16.39-4.13-3.92-7.06-9.48-5.76-15.31ZM1043.65 545.66c.72.13 2.17.38 2.89.51-.11 3.15-.12 6.3-.07 9.46-6.98.12-13.95.13-20.92-.01-.48 11.24-.06 22.5-.21 33.75-.7-.01-2.1-.02-2.8-.02.02-12.16 0-24.32.01-36.47 7.03 0 14.07.01 21.11-.01-.02-2.4-.03-4.81-.01-7.21ZM563.88 560.5c1.01.95 2.05 1.92 3.04 2.92-.43 8.44-.23 16.9-.11 25.35-1 .21-1.99.4-2.98.56.01-9.61-.05-19.22.05-28.83Z"/></g><g><path fill="#010304" d="M556.38 122.21c3.14 1.92 6.89 1.98 10.36 1.08.45 1.11.89 2.22 1.35 3.33-4.41.83-9.09-.69-11.71-4.41Z"/></g><g fill="#070707"><path d="M582.97 137.89c1.65-1.01 3.9 1.88 2.73 3.34-1.06-1-1.99-2.1-2.73-3.34ZM632.11 197.77c1.64-.95 3.85 2 2.71 3.43-1.08-1-2-2.15-2.71-3.43ZM437.39 502.29l2.2.16c.37 1.63.72 3.28.9 4.96-.09 1.74-.17 3.51-.24 5.27-6.19.16-12.37.04-18.55.09-.07 29.88.07 59.76-.07 89.64-4.8-.02-9.59-.03-14.38.02-.08-.99-.15-1.96-.22-2.94 3.94.23 7.89.07 11.83.1-.01-29.89 0-59.78 0-89.66 6.2-.01 12.4-.01 18.6-.01.01-2.55.05-5.09-.07-7.63ZM544.42 543.86l.63.52c5.87 5.15 12.04 9.96 17.84 15.2-6.44-4.86-12.79-9.98-18.47-15.72Z"/></g><g><path fill="#244564" d="M604.09 163.61Z"/></g><g><path fill="#416c90" d="M991.67 275.26c.03.03.11.1.14.14-.03-.04-.11-.11-.14-.14Z"/></g><g fill="#010204"><path d="M619.74 277.77c1.1 0 2.22.02 3.33.04-.01.71-.02 2.12-.03 2.83-.68.02-2.04.05-2.71.06-.15-.73-.44-2.2-.59-2.93ZM925.51 438.89c13.54.2 27.29-.87 40.62 2.08 7.51 1.6 14.84 5.11 19.85 11.07-8.94-7.99-21.44-9.51-32.93-10.16-8.24-.18-16.49-.26-24.72.02.16 33.85.03 67.7.07 101.56-.72.01-2.17.02-2.9.03 0-34.87-.01-69.73.01-104.6ZM84.92 509.93c7.38.2 16.32-1.1 21.82 5l-.18-.06c-5.98-2.38-12.49-2.2-18.8-2.11-.03 25.54-.02 51.08 0 76.63-.71-.02-2.13-.05-2.84-.06v-79.4ZM387.78 509.92c5.43.01 10.87 0 16.32.01 0 .7.01 2.11.02 2.82h-2.82c-4.39.01-8.78-.01-13.17.02-.09-.71-.27-2.14-.35-2.85ZM792.35 509.91c5.33.05 10.67-.01 16.02.02 0 .71.02 2.12.03 2.83-5.34-.02-10.68.01-16.02-.02 0-.71-.02-2.13-.03-2.83ZM1254.35 509.91c5.33.03 10.67 0 16.02.02.01.71.02 2.13.03 2.84-5.34-.04-10.68 0-16.01-.03l-.04-2.83ZM342.5 571.25c.61.04 1.82.13 2.42.17.55 5.44 1.91 10.69 4.05 15.72-4.31-4.08-5.63-10.25-6.47-15.89ZM859.99 571.4c.62-.02 1.84-.05 2.46-.07.26 5.51 1.93 10.71 3.95 15.79-4.26-4.04-5.57-10.13-6.41-15.72Z"/></g><g><path fill="#b0b0b0" d="M387 326.47c3.97-.79 8.1-.94 12.05.08-3.97.81-8.1.91-12.05-.08Z"/></g><g><path fill="#afafaf" d="M1045.89 326.4c3.73-.58 7.67-1 11.35.2-3.76.59-7.67.9-11.35-.2Z"/></g><g fill="#000001"><path d="M247.88 361.93c153.03-9.44 306.07-18.86 459.1-28.28 7.29-.37 14.6-1.31 21.91-.54 156 9.64 312 19.19 468 28.82-.19.9-.37 1.8-.53 2.71-157.12-9.71-314.24-19.41-471.36-28.99-158.08 9.61-316.14 19.48-474.22 29.13 9.75 50.09 19.5 100.19 29.32 150.26.42 1.97.32 4 .07 5.99-.13.72-.38 2.18-.5 2.9-1.54-6.19-2.6-12.47-3.85-18.72-9.31-47.76-18.65-95.52-27.94-143.28ZM189.27 502.57c.92-.05 2.75-.16 3.66-.21-6.98 21.67-15.1 42.99-22.18 64.64-.49 11.8.2 23.65-.34 35.45-4.58-.11-9.16-.05-13.74-.05-.02-.71-.04-2.12-.06-2.82 3.73.04 7.46.02 11.19.03 0-10.53.03-21.06-.03-31.59 0-1.86.01-3.75.64-5.52 6.95-19.98 13.99-39.93 20.86-59.93ZM862.14 513.18c4.99-4.66 14.14-5.15 19.04-.09l.12.49c-5.46-2.04-12.73-1.78-16.77 2.9-2.99 5.17-2.1 12 1.44 16.71-5.75-4.7-8.11-13.64-3.83-20.01Z"/></g><g><path fill="#000203" d="M263.55 374.96c152.49-9.4 304.99-18.83 457.49-28.16 24.74 1.12 49.45 2.99 74.18 4.39 128.68 7.93 257.37 15.82 386.05 23.77-.13.64-.41 1.93-.55 2.57-151.89-9.04-303.77-18.74-455.66-27.87-152.83 9.22-305.64 18.9-458.48 28.1 7.55 40.61 15.82 81.09 23.54 121.66-.56.01-1.68.02-2.25.02-8.22-41.47-16.21-82.99-24.32-124.48Z"/></g><g><path fill="#010508" d="M1021.16 432.84c7.47 6.83 11.94 16.45 15 25.98 3.99 13.11 4.93 26.95 4.49 40.6-.79-.01-2.35-.01-3.13-.02.12-2.54.23-5.08.3-7.61.14-20.54-3.21-42.64-16.66-58.95Z"/></g><g fill="#fff"><path d="M1037.23 499.41c.13-2.55.37-5.09.59-7.62-.07 2.53-.18 5.07-.3 7.61.78.01 2.34.01 3.13.02l7.87.03c0 .99.02 1.99.04 2.99.02 2.49.03 4.98.04 7.47-8.68.03-17.36.01-26.04.01-.02 10.99.01 21.98-.02 32.96h2.82c.26-.01.77-.01 1.02-.02 1.58-.02 3.2-.01 4.81.01 4.15.1 8.32-.07 12.48.2 0 .65-.01 1.94-.02 2.59-.02 2.4-.01 4.81.01 7.21-7.04.02-14.08.01-21.11.01-.01 12.15.01 24.31-.01 36.47.7 0 2.1.01 2.8.02 7.8.04 15.6.01 23.41.01.01.73.02 2.19.03 2.92.01 2.43 0 4.86.01 7.3-13.4.01-26.79-.03-40.18.02-.32-1.02-.6-2.04-.84-3.05-.17-3.01-.17-6.02-.24-9.02.28-7.41.14-14.82.1-22.22-.01-1.41 0-2.81.04-4.2.18-20.48-.04-40.97.12-61.46 9.81-.39 19.63.15 29.44-.26ZM70.22 499.42c11.41.36 22.96-.87 34.26 1.2 6.71 1.15 12.93 5.1 16.07 11.26 4.54 8.96 3.55 19.33 3.72 29.05-.23 11.95.66 23.98-.86 35.88-1.18 8.68-6.13 17.56-14.86 20.45-11.43 3.78-23.66 1.9-35.47 2.32-.98-.04-1.96-.08-2.94-.11.13-33.35-.03-66.7.08-100.05m14.7 10.51v79.4c.71.01 2.13.04 2.84.06 5.15-.15 10.81.45 15.48-2.17 4.97-3.32 5.67-9.79 5.88-15.24.35-12.64.1-25.28.17-37.92-.15-6.44.3-13.28-2.73-19.19l.18.06c-5.5-6.1-14.44-4.8-21.82-5ZM131.01 499.43c4.54.01 9.08.02 13.62-.01.4 1.11.79 2.24 1.19 3.37 5 14.8 9.91 29.64 14.82 44.47.2-.52.58-1.58.78-2.1 5.17-15.2 9.99-30.51 15.08-45.73 4.53.01 9.06.01 13.6-.02-.26 1.05-.5 2.12-.83 3.16-6.87 20-13.91 39.95-20.86 59.93-.63 1.77-.64 3.66-.64 5.52.06 10.53.03 21.06.03 31.59-3.73-.01-7.46.01-11.19-.03-.99-.02-1.98-.04-2.97-.05-.02-11.2 0-22.4 0-33.59.03-2.86-1.36-5.43-2.2-8.08-6.79-19.49-13.74-38.91-20.43-58.43ZM200.11 499.35c3.25.11 6.5.11 9.76.04.49 1.01.99 2.02 1.48 3.05 9.48 21.04 18.95 42.08 28.34 63.16l-.15-4.1c.28-20.68.04-41.37.12-62.05 3.53.02 7.06-.08 10.6-.08.37.24 1.1.73 1.47.97.07.49.22 1.46.29 1.95-.16 32.44-.01 64.89-.08 97.33-2.55-.01-5.1-.02-7.64-.05l-1.76-.04c-9.06-20.34-17.88-40.79-27.12-61.04-.96-2.31-1.95-4.59-2.91-6.88.11 22.67.02 45.34.04 68.01-3.26-.02-6.53-.02-9.79-.02-.67.01-2.01.01-2.68.02-.19-33.42-.25-66.86.03-100.27ZM287.87 499.44c.57 0 1.69-.01 2.25-.02 2.94.02 5.89.02 8.83-.05.29.99.61 2 .89 3.02 7.29 32.4 14.51 64.81 21.83 97.21-4.46-.01-8.92.08-13.38-.06-.29-.64-.88-1.93-1.18-2.58.29-1.43.1-2.78-.55-4.07-.09-.24-.28-.74-.38-.99.13-1.36 0-2.69-.4-3.99-.1-.48-.31-1.46-.41-1.94-.15-.76-.46-2.28-.62-3.04-.11-.45-.35-1.37-.47-1.83-.27-1.48-.44-2.97-.85-4.42-.17-.56-.51-1.69-.69-2.26-7.06.05-14.12.03-21.18.01-1.7 8.39-3.38 16.79-5.06 25.18-3.55-.01-7.09.01-10.64-.02-1.09-.03-2.18-.05-3.27-.06 1.26-5.66 2.59-11.31 3.69-17 4.8-19.45 8.57-39.15 13.39-58.6.12-.72.37-2.18.5-2.9.59-3.3 1.4-6.54 2.05-9.82.88-3.83 1.86-7.64 2.79-11.46.95-.13 1.9-.23 2.86-.31m4.25 20.55c-2.98 14.72-5.69 29.49-8.59 44.22 2.04-.02 4.08-.02 6.12 0 .75.02 2.25.05 3 .07-.12-.59-.37-1.77-.49-2.37.14.58.43 1.74.57 2.31 2.46.11 4.93.11 7.38-.07l.81-.21c-.03-.44-.1-1.33-.14-1.77l-.91-1.35c.81-1.39.66-2.69-.43-3.9.13-.47.39-1.41.53-1.89l-.8.3c-.17-.85-.53-2.54-.7-3.38.12-.5.35-1.51.47-2.01l-.77.32c-.18-.84-.53-2.51-.7-3.35.13-.49.4-1.48.53-1.98l-.86.32-.52-3.32.68-.99c-.38-.25-1.15-.75-1.53-1-.03-.77-.09-2.3-.13-3.06l.77-.93c-.4-.26-1.2-.79-1.61-1.05-.04-.76-.14-2.28-.19-3.05l.52-.84c-.36-.39-1.08-1.18-1.44-1.57-.08-3.2-1.04-6.31-1.57-9.45ZM333.01 508.05c4.02-5.89 11.16-8.79 18.08-9.25 8.67-.81 18.77 1.04 23.99 8.73 3.42 5 4.58 11.07 5.4 16.97-3.35.89-6.7 1.77-10.07 2.57-.66.15-1.97.47-2.63.62-.57-5.12-1.45-10.38-4.19-14.83-3.76-3.77-9.57-3.86-14.38-2.47-2.24.86-4.58 2.12-5.58 4.43-2.43 6.01-.75 13.18 4.04 17.54 8.28 7.76 17.83 14.15 25.48 22.6 3.71 4.45 7.19 9.38 8.27 15.19 1.23 7.19.8 15.3-3.86 21.27-8.5 10.9-25.64 11.84-36.88 4.86-7.94-5.61-11.33-15.57-11.64-24.95 4.32-1.03 8.61-2.18 12.91-3.28.19 1.06.37 2.12.55 3.2.84 5.64 2.16 11.81 6.47 15.89 5.54 3.83 15.71 3.36 18.32-3.82 2.04-5.83.77-12.68-3.17-17.43-5.41-6.61-12.47-11.57-18.84-17.17-5.9-4.88-12.58-9.92-14.71-17.66-2.09-7.54-2.02-16.3 2.44-23.01ZM385.15 499.39c5.37.1 10.75-.02 16.12.1 11.95.27 23.92-.25 35.87.24.06.64.19 1.92.25 2.56.12 2.54.08 5.08.07 7.63-6.2 0-12.4 0-18.6.01 0 29.88-.01 59.77 0 89.66-3.94-.03-7.89.13-11.83-.1-.71-.07-2.15-.23-2.87-.31-.06-28.81.04-57.62-.04-86.43-.01-.71-.02-2.12-.02-2.82-5.45-.01-10.89 0-16.32-.01-.68 0-2.02-.01-2.69-.01-.02-3.51-.03-7.01.06-10.52ZM439.08 499.39c2.15.01 4.3.03 6.45.03h2.9c1.27 0 2.56.01 3.85.03.22.63.65 1.9.87 2.53 5.08 15.13 10.01 30.32 15.18 45.42.32-1.11.66-2.2 1.01-3.28 5.07-14.86 9.72-29.85 14.78-44.71 4.59.04 9.18.02 13.77.03-.33.98-.65 1.97-.97 2.96-6.9 19.97-13.9 39.91-20.86 59.86-.66 1.81-.66 3.76-.65 5.67.07 10.55.01 21.11.03 31.67-3.88.01-7.76.03-11.64-.01l-2.56-.04c-.02-10.84-.02-21.68.02-32.51.12-3.48-1.38-6.68-2.49-9.89-3.46-9.55-6.57-19.24-10.24-28.71-.6-1.92-1.19-3.85-1.73-5.77-1.61-5.26-3.35-10.6-6.31-15.26-.18-1.68-.53-3.33-.9-4.96-.12-.77-.38-2.29-.51-3.06ZM540.41 505.38c6.04-6.01 15.13-7.15 23.25-6.56.69.1 2.07.3 2.76.39 5.45.87 10.56 3.76 13.75 8.32 3.43 5 4.56 11.07 5.42 16.96-3.36.88-6.7 1.82-10.09 2.57l-2.7.52c-.56-5.23-1.36-10.8-4.54-15.14-3.07-2.69-7.31-3.31-11.23-2.64-4.4.36-9.03 3.42-9.17 8.22-1.3 5.83 1.63 11.39 5.76 15.31 2.96 3.33 6.65 5.87 10.2 8.54.98.75 1.96 1.55 2.93 2.35 4.1 3.29 7.87 6.94 11.49 10.75 5.94 6.49 9.81 15.11 8.77 24.06-.14 9.68-7.51 18.33-16.82 20.57-8.79 2.14-19.09 1.26-26.24-4.75-6.47-6.03-9.56-14.76-9.71-23.48 4.2-1.05 8.38-2.15 12.58-3.19.28 1.55.57 3.12.87 4.68 1.05 5.16 2.51 10.64 6.36 14.46 2.64 2.25 6.49 2.15 9.78 2.01.99-.16 1.98-.35 2.98-.56 4.9-1.5 6.83-7.07 6.5-11.74.01-5.24-2.62-10.11-6.39-13.61-.99-1-2.03-1.97-3.04-2.92-.25-.23-.74-.69-.99-.92-5.8-5.24-11.97-10.05-17.84-15.2-3.58-4.05-7.95-7.8-9.32-13.27-2.33-8.57-2.01-19.12 4.68-25.73ZM598.42 499.44c5.08.01 10.17-.06 15.25.07 8.34.27 17.2-.92 24.96 2.85 3.13 1.34 4.87 4.44 7.58 6.35 4.32 7.99 5.27 17.58 3.44 26.4-1.35 6.61-5.73 12.7-12.01 15.41-7.63 3.51-16.25 2.17-24.37 2.45.02 15.52-.05 31.05.04 46.58-3.96.08-7.91.08-11.85.03-1.02-.02-2.04-.03-3.04-.04-.02-33.36-.02-66.73 0-100.1m14.81 43.42c.66.02 1.97.05 2.63.07 5.38-.04 10.95-.01 15.98-2.19 1.95-1.81 3.56-4.03 4.02-6.7 1.16-6.63.71-13.49-.89-20.01l-.63-.13c-5.41-5.7-13.98-3.77-20.99-4.34-.21 11.09.01 22.2-.12 33.3ZM669.13 503.3c7.63-4.87 17.22-5.28 25.95-4.02 5.92.82 11.61 3.72 15.25 8.55 4.88 6.66 5.73 15.19 5.9 23.2.09 10 0 19.99.04 29.99-.03 10.02.18 20.92-5.68 29.58-4.01 6.28-11.5 9.23-18.67 9.82-7.57.63-15.73-.04-22.25-4.27-9.19-6.53-11.04-18.74-10.94-29.23.04-12.97-.16-25.93.1-38.9.16-8.83 2.61-18.23 9.55-24.21.19-.13.56-.39.75-.51m11.01 7.7c-5.72 2.51-6.12 9.67-6.41 15.05-.2 14.64-.04 29.29-.08 43.93.22 4.66.13 9.61 2.25 13.89 1.13 2.21 3.36 4.66 6.12 3.82.34.48 1.02 1.45 1.35 1.94 4.97.01 10.95.32 14.51-3.85 3.55-4.76 3.12-11.08 3.46-16.7-.05-11.03.15-22.08-.09-33.09-.04-7.44.65-15.37-2.73-22.26-4.7-4.81-12.43-5-18.38-2.73ZM730.43 499.45c8.84.08 17.7-.27 26.53.27 7.33.53 15.19 2.48 20.25 8.19 6.19 7.83 5.94 18.64 4.24 27.97-1.23 6.28-5.77 11.6-11.83 13.71 5.11 16.63 9.94 33.35 14.96 50.02-4.15-.02-8.29.02-12.42.01-.48-.02-1.44-.08-1.93-.11-.39-1.19-.78-2.37-1.13-3.56-3.78-13.54-7.86-27.01-11.8-40.51-.22-.69-.65-2.07-.87-2.76-3.7.03-7.4.03-11.09-.05-.1 15.64-.05 31.28-.03 46.92-4.75-.49-9.53.05-14.28-.34-1.07-1.07-.42-2.86-.63-4.2.12-11.25.02-22.5.07-33.75-.11-20.6-.02-41.21-.04-61.81m14.87 43.04c.7-.01 2.11-.01 2.81-.02 6.33.05 14.6.08 18.14-6.23 2.85-6.68 2.79-14.85-.24-21.45-4.95-6.24-13.68-4.92-20.69-5.2-.07 10.97-.02 21.93-.02 32.9ZM789.39 499.44c17.44-.02 34.88.01 52.32-.01l.04 2.95c.02 2.51.02 5.02.03 7.54-6.17.02-12.34-.03-18.51.03.05 29.87-.03 59.74.04 89.62-3.96.05-7.92.06-11.87.01-1.02-.03-2.02-.04-3.01-.04-.03-28.93.03-57.85-.03-86.78-.01-.71-.03-2.12-.03-2.83-5.35-.03-10.69.03-16.02-.02l-3.03-.08c.07-3.46.06-6.93.07-10.39ZM851.56 506.61c6.95-8.04 18.99-9.25 28.8-6.93 4.5.8 8.19 3.56 11.36 6.72 4.03 5.17 5.35 11.75 6.19 18.1-3.45.89-6.87 1.94-10.38 2.57-.57.05-1.7.17-2.26.22-.67-4.88-1.38-9.97-4.09-14.2-4.9-5.06-14.05-4.57-19.04.09-4.28 6.37-1.92 15.31 3.83 20.01 4.16 3.88 8.8 7.2 12.97 11.09 4 3.53 7.79 7.29 11.74 10.88 6.75 7.05 10.37 17.15 8.36 26.85-1.22 8.19-7.66 15.01-15.52 17.31-8.65 2.46-18.65 1.69-26.17-3.53-7.42-5.75-10.23-15.22-11.07-24.19 4.33-1.43 8.8-2.41 13.22-3.53.12.83.37 2.5.49 3.33.84 5.59 2.15 11.68 6.41 15.72 4.27 3.11 10.15 2.77 14.85.89 6.6-5.49 5.39-16.56.1-22.54-6.31-7.02-13.94-12.66-21.08-18.79-5.39-4.33-10.82-9.43-12.49-16.42-1.84-7.88-1.64-17.15 3.78-23.65ZM940.45 499.45c8.29.05 16.59-.19 24.88.15 7.86.4 16.34 2.2 21.88 8.25 6.28 8.05 6.02 19.12 4.11 28.66-1.38 6.03-5.85 11.01-11.68 13.08 5.11 16.63 9.93 33.36 14.95 50.02-4.15 0-8.31-.01-12.46 0 .26.66.79 1.98 1.05 2.64-1.66-2.26-3.53-4.47-4.24-7.24-3.81-13.22-7.7-26.43-11.59-39.62-.23-.68-.7-2.04-.94-2.71-3.68.04-7.37.04-11.04-.06-.12 15.65-.05 31.3-.04 46.95-3.97.05-7.94.05-11.9.01-1-.02-2-.03-2.98-.04-.03-7.16.02-14.31-.04-21.47-.01-.97 0-1.94.03-2.91.18-10.59.13-21.18.05-31.77-.11-14.65-.02-29.3-.04-43.94m14.96 42.99c.61.01 1.82.04 2.43.05 5.73-1.12 11.76-1.67 16.89-4.74 2.26-1.41 2.63-4.36 3.17-6.76.61-5.39.68-11.25-1.87-16.18-4.93-6.26-13.69-4.95-20.7-5.21.03 10.95-.16 21.9.08 32.84ZM1060.42 499.44c9.29.06 18.59-.13 27.89.1 7.04.2 14.58 2.36 19 8.22 4.73 6.63 5.64 15.21 5.03 23.12-.57 7.62-4.38 15.39-11.38 18.99-7.87 4.29-17.11 2.82-25.69 3.1.01 15.54-.02 31.07.02 46.61-3.99.04-7.98.04-11.95 0-.99-.02-1.96-.03-2.92-.04-.02-33.36-.02-66.73 0-100.1m14.82 43.41 2.62.08c5.24-.21 10.96.33 15.7-2.35 4.51-2.81 4.85-8.75 4.89-13.52-.19-4.36.18-9.24-2.24-13.07-5.15-5.94-13.94-3.79-20.86-4.43-.2 11.1.01 22.2-.11 33.29ZM1129.04 505.09c7.49-6.75 18.47-7.04 27.96-5.87 2.57.55 5.1 1.35 7.55 2.36 1.03.48 2.06 1 3.08 1.57.35.34 1.05 1.04 1.4 1.38.89.88 1.81 1.74 2.73 2.63 6.5 8.08 6.46 19.02 6.52 28.86-.23 13.03.48 26.1-.51 39.1-.8 9.55-5.52 19.94-15.13 23.35-10.07 3.38-21.89 3.12-31.2-2.33-7.69-5.93-10.39-15.92-10.62-25.22-.35-13.29-.1-26.6-.14-39.9.12-9.12 1.41-19.31 8.36-25.93m9.67 8.59c-3.04 4.47-2.82 10.15-3.07 15.33 0 13.33.01 26.65 0 39.97.18 6.32 0 13.52 4.76 18.38l.05.44c2.15.74 4.38 1.25 6.65 1.59l.68-2.6c-.13.64-.4 1.92-.53 2.57l3.51.12c.45-.05 1.34-.17 1.78-.23 2.96-.33 6.05-1.44 7.75-4.05 2.8-4.19 2.71-9.46 3.01-14.3.13-8.63-.03-17.27.09-25.91.05-1.94-.16-3.9-.93-5.69.79-3.89 1.06-7.91.6-11.86.15-3.94-.47-7.9-1.48-11.71-.24-.69-.49-1.37-.75-2.03l-.38-.07c-2.55-2.46-5.95-3.92-9.49-3.92-4.31-.2-9.43.28-12.25 3.97ZM1251.39 499.44c17.44-.01 34.88.01 52.33-.01.01.74.02 2.21.03 2.95.02 2.51.01 5.02.03 7.54-6.17.01-12.33 0-18.49.01.01 29.88-.03 59.76.01 89.65-3.96.04-7.92.04-11.87 0-1.02-.02-2.02-.04-3-.04-.03-28.93.03-57.85-.03-86.77-.01-.71-.02-2.13-.03-2.84-5.35-.02-10.69.01-16.02-.02-.75-.01-2.24-.02-2.99-.03.02-3.49.02-6.96.03-10.44ZM1192.63 499.91c.58-.12 1.73-.35 2.31-.47 1.16-.05 2.33-.07 3.53-.05 9.23.28 18.61-.63 27.72 1.39 4.9 1.08 9.66 3.34 13.04 7.14 6.28 8.02 5.96 19.1 4.07 28.6-1.37 6.04-5.85 11.01-11.67 13.07 5.11 16.63 9.93 33.36 14.95 50.02-4.08-.01-8.16 0-12.24-.02-.51 0-1.52-.01-2.03-.01-4.46-14.7-8.63-29.47-13.01-44.19l-.88-2.71c-3.72.02-7.43.02-11.14.02.04 15.62-.01 31.25.02 46.89-3.98.02-7.97.03-11.94-.01-.99-.02-1.96-.03-2.92-.04-.11-22.06.17-44.12-.15-66.18.15-7.23-.09-14.47.34-21.69.05-3.93-.22-7.85 0-11.76m14.8 42.52c.61.03 1.81.08 2.42.11 5.05-.13 10.51.08 14.99-2.65 3.74-2.25 4.97-6.85 5.3-10.93.25-4.76.17-9.84-2.11-14.15-4.93-6.26-13.67-4.92-20.68-5.23-.03 10.94-.22 21.91.08 32.85Z"/></g><g><path fill="#000102" d="M252.02 502.29c.69.06 2.07.16 2.76.22.03 8.04-.12 16.08.13 24.11-.47 25.29.28 50.61-.38 75.88-2.94-.13-5.89-.14-8.82-.04-.36-.72-1.06-2.17-1.41-2.89 2.54.03 5.09.04 7.64.05.07-32.44-.08-64.89.08-97.33Z"/></g><g><path fill="#000101" d="M292.12 519.99c.53 3.14 1.49 6.25 1.57 9.45-1.45 6.44-2.6 12.94-3.86 19.42-1.38 5.04-1.72 10.3-.18 15.35-2.04-.02-4.08-.02-6.12 0 2.9-14.73 5.61-29.5 8.59-44.22Z"/></g><g fill="#838383"><path d="M294.8 534.9c-1.37-.52-1.07-2.24-.19-3.05.05.77.15 2.29.19 3.05ZM295.77 539.94c-1.32-.52-1.08-2.32-.13-3.06.04.76.1 2.29.13 3.06Z"/></g><g><path fill="#8b8b8b" d="M296.04 545.66c-.33-1.26-.32-2.71.58-3.73l.52 3.32c-.28.1-.83.31-1.1.41Z"/></g><g><path fill="#8a8a8a" d="M297.01 550.72c-.41-1.29.01-2.61.46-3.81.17.84.52 2.51.7 3.35-.29.12-.87.35-1.16.46Z"/></g><g fill="#898989"><path d="M297.99 555.73c-.41-1.29.06-2.58.48-3.78.17.84.53 2.53.7 3.38-.29.1-.88.3-1.18.4ZM299.87 560.82c-1.63-.73-.93-2.68-.43-3.9 1.09 1.21 1.24 2.51.43 3.9Z"/></g><g><path fill="#8e8e8e" d="M300.11 564.15c.17-.5.51-1.49.67-1.98.04.44.11 1.33.14 1.77l-.81.21Z"/></g><g><path fill="#0e0e0e" d="M547.69 572.86c.2-1.36.96-1.9 2.27-1.6.68 5.52 2.02 10.89 4.09 16.06-3.85-3.82-5.31-9.3-6.36-14.46Z"/></g><g><path fill="#909090" d="M304.2 586.57c-1.05-1.06-.28-2.72.55-3.64.16.76.47 2.28.62 3.04-.29.15-.88.45-1.17.6Z"/></g><g><path fill="#939393" d="M306.18 591.9c-1.7-.69-2.02-3.01-.4-3.99.4 1.3.53 2.63.4 3.99Z"/></g><g><path fill="#02060a" d="M1048.78 592.3c.71.03 2.13.1 2.84.14.03 3.33.03 6.66-.13 9.99-13.31.04-26.63-.18-39.93.12 7.15 24.62 14 49.34 21.04 74 4.61 16.65 9.61 33.2 13.98 49.91-14.18-.12-28.38.22-42.55-.16l-.72-2.72c13.49-.08 26.99-.01 40.49-.04-11.76-41.3-23.3-82.66-35.19-123.92 13.39-.05 26.78-.01 40.18-.02-.01-2.44 0-4.87-.01-7.3Z"/></g><g><path fill="#969696" d="M307.11 596.96c-1.75-.75-1.69-2.81-.55-4.07.65 1.29.84 2.64.55 4.07Z"/></g><g><path fill="#356088" d="M764.05 593.8c1.63 1.21 3.35 2.31 5.08 3.4l-.03-1.25c.35 1.19.74 2.37 1.13 3.56.49.03 1.45.09 1.93.11.37.6 1.11 1.79 1.48 2.38 4.44.78 9 .08 13.49.44-4.86.91-10.42-1.3-14.76 1.54-2.76-3.41-5.51-6.83-8.32-10.18Z"/></g><g><path fill="#020910" d="M657.61 651.85c.65-.04 1.94-.1 2.59-.13 1.73 22.76 5.84 46.29 18.64 65.65-6.03-6.01-9.32-13.96-12.51-21.69-5.06-14.08-7.76-28.93-8.72-43.83Z"/></g><g><path fill="#3b6184" d="M439.63 857.19Z"/></g></svg>