<svg viewBox="0 0 363 512" xmlns="http://www.w3.org/2000/svg" fill-rule="evenodd" clip-rule="evenodd" stroke-linejoin="round" stroke-miterlimit="1.414"><path d="M33.01 470.877L0 100.62h362.734l-33.046 370.2L181.145 512 33.01 470.877z" fill="#E44D26" fill-rule="nonzero"/><path d="M181.367 480.523l120.03-33.277 28.24-316.352h-148.27v349.63z" fill="#F16529" fill-rule="nonzero"/><path d="M181.367 268.217h-60.09l-4.15-46.5h64.24v-45.412H67.5l1.086 12.183 11.16 125.14h101.62v-45.41zm0 117.936l-.2.053-50.573-13.656-3.233-36.217H81.78l6.362 71.3 93.02 25.824.21-.058v-47.25z" fill="#EBEBEB" fill-rule="nonzero"/><path d="M33.75 0h23.076v22.8h21.11V0h23.078v69.044H77.937v-23.12h-21.11v23.12H33.75V0zm97.61 22.896h-20.315V0h63.72v22.896H154.44v46.148h-23.078V22.896zM184.878 0h24.063l14.806 24.26L238.53 0h24.072v69.044H239.62V34.822l-15.877 24.55h-.397l-15.888-24.55v34.222h-22.58V0zm89.21 0h23.083v46.222h32.457v22.822H274.09V0z" fill-rule="nonzero"/><path d="M181.21 268.217v45.41h55.918l-5.27 58.894-50.648 13.67v47.248l93.094-25.8.683-7.673 10.67-119.55 1.11-12.195h-105.56zm0-91.912v45.41h109.688l.91-10.206 2.07-23.025 1.086-12.183H181.21z" fill="#fff" fill-rule="nonzero"/></svg>