<svg viewBox="0 0 125 121" xmlns="http://www.w3.org/2000/svg" fill-rule="evenodd" clip-rule="evenodd" stroke-linejoin="round" stroke-miterlimit="1.414"><path d="M27.44 111.28l-7.802-87.5h85.724l-7.81 87.488L62.448 121l-35.01-9.72z" fill="#E44D26" fill-rule="nonzero"/><path d="M62.5 113.56l28.366-7.863 6.674-74.763H62.5v82.627z" fill="#F16529" fill-rule="nonzero"/><path d="M62.5 63.387H48.3l-.982-10.99H62.5v-10.73H35.59l.257 2.878 2.637 29.574H62.5V63.384zm0 27.873l-.047.01L50.5 88.045l-.763-8.56H38.963l1.503 16.85 21.984 6.104.05-.016V91.26z" fill="#EBEBEB" fill-rule="nonzero"/><path d="M27.614 0h5.453v5.388h4.99V0h5.453v16.317h-5.453v-5.464h-4.99v5.464h-5.453V0zm23.068 5.41h-4.8V0H60.94v5.41h-4.804v10.907h-5.454V5.41zM63.33 0h5.686l3.5 5.733L76.008 0h5.688v16.317h-5.43V8.23l-3.753 5.8h-.094l-3.756-5.8v8.087H63.33V0zm21.082 0h5.456v10.924h7.67v5.393H84.41V0z" fill-rule="nonzero"/><path d="M62.463 63.387V74.12h13.215l-1.246 13.917-11.97 3.23v11.166l22.002-6.098.16-1.813 2.523-28.253.262-2.885H62.46zm0-21.72v10.73h25.922l.216-2.412.49-5.44.258-2.88H62.463z" fill="#fff" fill-rule="nonzero"/></svg>