<svg xmlns="http://www.w3.org/2000/svg" viewBox="0 0 500 181"><g fill="none"><path d="M66.26 0h1.523c8.763 1.126 15.76 7.471 20.224 14.779C98.609 31.9 101.684 52.82 99.988 72.646c-1.634 18.954-9.693 38.165-25.025 49.996-8.866 6.499-19.417 11.33-30.5 11.974-8.662.604-17.415-3.705-22.114-11.033-1.379-2.272-2.012-5.137-4.494-6.54-1.502 6.07-3.218 12.18-6.323 17.655-1.277 2.068-2.707 4.227-4.913 5.404-2.656 1.003-4.985-.9-6.619-2.773 4.668-14.36 9.326-28.719 14.116-43.037 3.187-8.638 5.465-17.686 9.929-25.791 2.788-5.24 8.539-8.035 11.532-13.08 5.22-12.19 3.646-26.324 9.785-38.237C50.061 9.334 56.792 1.658 66.261 0m.132 7.737c-9.867 2.713-15.28 12.405-17.916 21.616-3.074 12.466-3.82 25.372-3.667 38.165.194 13.039 5.046 26.262 14.444 35.453 3.432 3.326 7.047 7.103 11.92 8.034 5.025.84 9.305-2.968 11.96-6.827 5.159-8.034 7.171-17.572 8.724-26.876 2.196-15.086 1.971-30.612-1.297-45.534-1.512-7.092-3.974-14.338-8.928-19.793-3.759-4.156-9.826-6.448-15.24-4.238m-35.79 65.287c-3.709 7.82-4.934 16.652-4.945 25.25.532 8.965 2.054 18.902 8.907 25.36 4.862 4.75 12.33 3.757 18.356 2.416 5.679-1.648 12.002-3.879 15.27-9.17-5.005-2.313-9.867-5.118-13.84-8.997C43.779 97.741 39.54 82.88 38.049 68.695c-3.381-1.975-6.14 1.586-7.447 4.33ZM158.996 11.77c2.37 2.63 2.237 6.397 2.451 9.713.215 17.204-2.461 34.265-3.115 51.429.01.9-1.41 1.893-.235 2.548 4.127-15.577 9.162-31.042 16.598-45.39 2.237-3.808 4.546-8.188 8.795-10.02 2.717-.512 4.525 2.067 5.311 4.298 1.839 5.363 2.39 11.043 2.942 16.652 1.247 15.454.73 30.932.036 46.397l-.176 3.866c-.267 5.799-.541 11.596-.738 17.388 2.226-2.855 3.187-6.417 4.637-9.672 6.793-17.695 11.726-36.026 18.039-53.885l.275-.702.55-1.408c2.38-6.109 4.813-12.306 8.888-17.5 1.42-1.903 3.8-3.224 6.19-2.282 3.606.573 4.964 4.411 5.68 7.512 1.879 8.73 2.134 17.706 2.287 26.61.174 15.649.195 31.308 1.165 46.926.097.676.189 1.359.278 2.045l.135 1.032.067.518.137 1.037c.7 5.193 1.641 10.439 4.776 14.722 1.692 2.098 4.05 2.052 6.49 1.865l.611-.049c2.45-.196 4.936-.367 6.872 1.49.879-.983 1.737-1.965 2.615-2.948-1.787-13.847 2.758-28.34 11.992-38.769 3.156-3.408 7.221-6.54 12.032-6.796 4.525.287 9.939 1.096 12.34 5.486 3.033 5.455.408 11.77-1.798 17-5.026 10.726-12.39 20.5-21.767 27.777 3.983 2.548 8.355 4.892 13.207 4.984 7.242.706 14.392-.747 21.563-1.423 2.226-3.745 6.281-5.28 9.907-7.225-1.48-2.027-2.86-4.125-3.932-6.387 4.024-1.862 8.437 2.528 12.36.215 10.203-7.788 20.387-15.792 28.794-25.566.738-1.053 1.366-2.23 1.998-3.413l.345-.645c1.389-2.579 2.889-5.088 5.665-6.31 1.654-.982 4.29-.04 4.443 2.017 1.072 4.963-4.137 8.453-3.739 13.356.154 11.882-.357 23.785.266 35.647 5.557-.143 11.39-.072 16.394-2.886 4.447-2.01 7.52-5.632 10.597-9.268l.74-.872c1.728-2.03 3.493-4.026 5.537-5.703 3.381-2.58 4.79-6.745 7.375-9.99 6.129-8.013 14.32-15.065 24.3-17.5 5.352-.83 11.389-1.014 15.996 2.312-1.45 6.479-4.372 12.732-5.016 19.457-1.236 7.85-.95 17.255 5.25 23.058 6.436 5.414 16.19 6.94 23.872 3.44 6.067-2.682 8.835-9.499 14.76-12.375.285 6.694-3.78 13.275-9.806 16.12-5.271 2.569-11.287 2.436-17.007 2.395-6.282.01-12.84-1.546-17.835-5.506-4.055-3.235-5.77-8.424-6.445-13.398-.153-.03-.48-.081-.643-.112-3.953 7.133-10.082 13.336-17.733 16.365-5.158 2.21-11.133-.286-14.627-4.309-2.676-3.06-3.289-7.215-3.513-11.125-6.752 8.147-16.466 13.459-26.425 16.662-5.516 1.955-11.491 1.535-17.19.799-9.449-1.74-16.722-8.649-25.434-12.149-3.218.676-5.771 3.45-9.122 4.084-1.93.14-3.155 1.389-4.356 2.69l-.343.371c-.172.186-.345.37-.52.551-5.874 3.132-12.779 2.917-19.244 3.347l-1.834-.068-1.229-.047c-7.588-.308-15.374-.9-22.177-4.48-2.053-.932-3.473-2.702-4.688-4.524-2.728 2.2-5.281 4.595-7.406 7.39-2.717 3.275-7.65 2.783-11.072 1.013-5.403-2.518-7.477-8.618-9.326-13.848-4.013-14.474-4.346-29.554-4.743-44.501l-.06-2.24c-.032-1.12-.064-2.24-.1-3.357-.378-11.238.49-22.578-1.225-33.723-1.063-3.634-4.056-.01-4.811 1.8-3.634 7.363-6.176 15.17-8.603 23.014l-.764 2.478c-1.016 3.304-2.03 6.608-3.115 9.88-5.874 18.514-10.797 37.418-18.693 55.205-1.573 3.06-2.982 6.735-6.343 8.23-4.024-7.227-3.31-15.844-4.034-23.817-.457-12.427-.154-24.851.203-37.275l.166-5.735c.274-9.557.517-19.114.407-28.673-.255-1.597.337-3.685-1.083-4.852-1.062-1.555-3.483-1.432-4.392.205-2.53 3.637-3.972 7.85-5.293 12.065l-.394 1.264c-.261.842-.522 1.681-.789 2.514-3.053 11.868-5.598 23.855-8.107 35.849l-1.368 6.542c-.913 4.36-1.833 8.72-2.782 13.07-2.084 7.513-3.013 15.65-7.446 22.24-1.492.86-2.534-.746-3.003-1.913-.338-13.315-.521-26.682.572-39.977l-1.318.88c-3.391 10.767-8.284 21.176-15.24 30.11-3.667 4.432-7.937 8.946-13.626 10.594-4.923 1.586-10.49-3.695-8.641-8.74.776-3.593 4.27-5.18 7.19-6.704 4.893-3.194 8.274-8.137 11.533-12.886 10.929-16.846 16.935-36.404 20.234-56.086 1.87-10.173 2.85-20.51 2.85-30.847-.48-3.848 2.605-6.97 5.75-8.648Zm265.982 82.9c-11.46 4.207-18.498 15.854-21.491 27.184-1.185 4.186-1.45 10.419 3.166 12.578 6.415 1.679 11.86-3.183 15.771-7.625 6.956-8.085 12.298-18.013 13.698-28.677-1.839-4.176-7.273-4.933-11.144-3.46Zm-68.181 8.639c-3.687 1.32-6.445 4.247-9.162 6.939-4.209 4.35-8.774 8.361-12.717 12.946-.143 1.679 1.655 2.713 2.768 3.695 6.272 4.155 13.769 6.12 21.205 6.745.235-10.143-.45-20.316-2.094-30.325Zm-69.14-16.059c-6.282-.122-11.522 4.401-14.77 9.406-4.188 6.734-5.894 15.127-4.035 22.895 2.196-.051 3.882-1.566 5.547-2.815 5.934-4.656 11.072-10.418 14.729-17.03 1.48-2.948 3.054-6.192 2.482-9.59-.235-1.852-2.176-3.08-3.953-2.866ZM129.682 28.503c2.982 14.677-1.716 29.937-9.204 42.556-1.46 2.323-3.156 5.711-6.445 5.169-3.605-.758-4.882-5.148-3.657-8.27 2.666-7.123 5.598-14.154 8.203-21.298.569-1.93.769-3.99.968-6.052l.08-.824c.343-3.433.819-6.82 3.13-9.561 1.644-2.119 4.545-1.945 6.925-1.72Z" fill="#4D4D4D"/><path d="M104.093 179.83v-15.188l-1.946-.23a1.537 1.537 0 0 1-.6-.273c-.156-.123-.234-.303-.234-.538v-1.287h2.78v-1.73c0-1.022.142-1.93.426-2.725.283-.793.689-1.464 1.216-2.01a5.146 5.146 0 0 1 1.902-1.244c.741-.283 1.575-.424 2.502-.424a6.58 6.58 0 0 1 2.189.353l-.07 1.57c-.011.235-.11.376-.295.423-.186.048-.446.071-.782.071h-.539a4.65 4.65 0 0 0-1.45.212c-.435.14-.808.37-1.12.688-.313.317-.554.735-.722 1.252-.168.518-.252 1.159-.252 1.923v1.64h5.09v2.276h-4.985v15.241h-3.11Zm13.485-17.87v11.396c0 1.353.307 2.4.92 3.14.615.741 1.541 1.112 2.78 1.112a5.26 5.26 0 0 0 2.554-.653c.8-.435 1.535-1.04 2.207-1.817v-13.177h3.092v17.87h-1.841c-.44 0-.719-.218-.834-.653l-.244-1.923a9.706 9.706 0 0 1-2.57 2.073c-.95.523-2.04.785-3.267.785-.961 0-1.81-.162-2.545-.486a5.05 5.05 0 0 1-1.85-1.367c-.498-.588-.872-1.3-1.12-2.134-.25-.835-.374-1.758-.374-2.77v-11.395h3.092Zm16.439 17.87v-17.87h1.841c.44 0 .718.218.834.653l.243 1.94a9.918 9.918 0 0 1 2.563-2.08c.944-.53 2.035-.795 3.275-.795.96 0 1.81.162 2.545.486a4.93 4.93 0 0 1 1.841 1.376c.492.593.866 1.308 1.12 2.143.256.835.383 1.758.383 2.77v11.377h-3.092v-11.378c0-1.352-.304-2.402-.912-3.148-.609-.747-1.538-1.12-2.789-1.12-.915 0-1.769.223-2.562.67-.794.447-1.526 1.052-2.198 1.817v13.16h-3.092Zm31.118-14.694c-.092.13-.185.23-.278.3-.092.07-.226.106-.4.106-.173 0-.361-.074-.564-.22a8.21 8.21 0 0 0-.773-.486 6.42 6.42 0 0 0-1.138-.485c-.446-.147-.993-.22-1.642-.22-.857 0-1.615.155-2.275.467a4.426 4.426 0 0 0-1.66 1.35c-.445.587-.781 1.299-1.007 2.134-.226.835-.339 1.77-.339 2.805 0 1.082.122 2.043.365 2.884.243.84.585 1.546 1.025 2.117a4.39 4.39 0 0 0 1.607 1.305c.631.3 1.34.45 2.128.45.753 0 1.373-.091 1.859-.273a5.63 5.63 0 0 0 1.216-.61c.324-.223.59-.425.8-.608.208-.182.416-.273.625-.273.266 0 .463.1.59.3l.869 1.146a6.69 6.69 0 0 1-2.867 2.09 10.026 10.026 0 0 1-3.63.662c-1.1 0-2.123-.206-3.067-.617a6.995 6.995 0 0 1-2.458-1.79c-.695-.783-1.242-1.744-1.642-2.885-.4-1.14-.599-2.44-.599-3.898 0-1.33.182-2.558.547-3.687.365-1.13.898-2.102 1.598-2.92a7.25 7.25 0 0 1 2.598-1.914c1.03-.458 2.212-.688 3.544-.688 1.227 0 2.316.203 3.266.609.95.406 1.79.98 2.519 1.72l-.817 1.129Zm9.35 14.977c-1.389 0-2.457-.394-3.204-1.182-.747-.788-1.12-1.923-1.12-3.405V164.59h-2.12a.686.686 0 0 1-.47-.167c-.127-.112-.19-.286-.19-.52v-1.253l2.883-.37.713-5.522a.67.67 0 0 1 .225-.432.71.71 0 0 1 .487-.168h1.563v6.157h5.038v2.275h-5.038v10.725c0 .753.18 1.312.539 1.676.359.365.822.547 1.39.547.324 0 .605-.044.842-.132a3.59 3.59 0 0 0 .617-.291c.174-.106.321-.203.443-.291.122-.089.229-.133.321-.133.163 0 .307.1.435.3l.903 1.5a5.746 5.746 0 0 1-1.928 1.19 6.46 6.46 0 0 1-2.328.433Zm10.863-18.152v17.87h-3.093v-17.87h3.093Zm.695-5.61c0 .306-.061.591-.183.856-.121.264-.283.5-.486.705a2.259 2.259 0 0 1-.704.485c-.266.118-.55.177-.851.177-.301 0-.582-.059-.843-.177a2.327 2.327 0 0 1-1.173-1.19 2.11 2.11 0 0 1-.173-.856 2.27 2.27 0 0 1 1.346-2.082c.261-.117.542-.176.843-.176.301 0 .585.059.851.177.267.117.501.279.704.485.203.205.365.447.486.723.122.276.183.567.183.873Zm11.678 5.327c1.286 0 2.447.218 3.483.653a7.343 7.343 0 0 1 2.641 1.852c.724.8 1.28 1.767 1.668 2.902.388 1.135.582 2.402.582 3.802 0 1.41-.194 2.681-.582 3.81-.388 1.129-.944 2.093-1.668 2.893a7.25 7.25 0 0 1-2.64 1.843c-1.037.43-2.198.644-3.484.644-1.285 0-2.446-.214-3.483-.644a7.333 7.333 0 0 1-2.65-1.843c-.729-.8-1.29-1.764-1.684-2.893-.394-1.129-.591-2.4-.591-3.81 0-1.4.197-2.667.59-3.802.394-1.135.956-2.102 1.686-2.902a7.427 7.427 0 0 1 2.649-1.852c1.037-.435 2.198-.653 3.483-.653Zm0 15.947c1.737 0 3.035-.59 3.892-1.773.857-1.181 1.285-2.83 1.285-4.948 0-2.128-.428-3.786-1.285-4.974-.857-1.188-2.155-1.782-3.892-1.782-.88 0-1.644.153-2.293.459a4.305 4.305 0 0 0-1.624 1.323c-.435.576-.759 1.285-.973 2.125-.214.841-.322 1.79-.322 2.85 0 1.058.108 2.004.322 2.84.214.834.538 1.537.973 2.107.434.57.975 1.009 1.624 1.315.649.305 1.413.458 2.293.458Zm11.991 2.205v-17.87h1.842c.44 0 .718.218.834.653l.243 1.94a9.918 9.918 0 0 1 2.563-2.08c.943-.53 2.035-.795 3.274-.795.962 0 1.81.162 2.545.486a4.93 4.93 0 0 1 1.842 1.376c.492.593.866 1.308 1.12 2.143.255.835.383 1.758.383 2.77v11.377h-3.093v-11.378c0-1.352-.304-2.402-.912-3.148-.608-.747-1.537-1.12-2.788-1.12-.915 0-1.77.223-2.563.67-.793.447-1.525 1.052-2.197 1.817v13.16h-3.093Zm32.04 0h-1.373c-.3 0-.544-.047-.73-.14-.185-.095-.306-.295-.364-.6l-.348-1.659a19.81 19.81 0 0 1-1.355 1.138 7.76 7.76 0 0 1-1.39.847 7.126 7.126 0 0 1-1.554.52 8.787 8.787 0 0 1-1.833.177 6.17 6.17 0 0 1-1.92-.291 4.358 4.358 0 0 1-1.555-.874 4.145 4.145 0 0 1-1.05-1.473c-.261-.594-.392-1.296-.392-2.108 0-.705.191-1.384.574-2.037.382-.653.999-1.232 1.85-1.738.851-.505 1.966-.92 3.344-1.243 1.378-.324 3.063-.509 5.055-.556v-1.394c0-1.387-.292-2.437-.877-3.148-.585-.712-1.45-1.068-2.597-1.068-.753 0-1.387.097-1.902.291a7.154 7.154 0 0 0-1.338.653c-.376.241-.7.459-.973.653-.272.194-.541.29-.808.29a.917.917 0 0 1-.547-.167 1.27 1.27 0 0 1-.374-.414l-.555-1.006c.972-.952 2.02-1.664 3.144-2.134 1.123-.47 2.368-.706 3.735-.706.985 0 1.859.165 2.623.494a5.38 5.38 0 0 1 1.929 1.376c.52.588.915 1.3 1.181 2.135.266.834.4 1.752.4 2.751v11.431Zm-8.026-1.922a6.21 6.21 0 0 0 1.494-.168 5.84 5.84 0 0 0 1.276-.476c.4-.206.782-.456 1.147-.75s.721-.63 1.068-1.006v-3.722c-1.424.047-2.634.162-3.63.344-.996.183-1.807.42-2.433.715-.625.294-1.08.64-1.363 1.04-.284.4-.426.847-.426 1.341 0 .47.075.876.226 1.217.15.341.353.62.608.838.255.218.556.377.903.477.348.1.724.15 1.13.15Zm15.952-24.062v25.984h-3.093v-25.984h3.093Zm24.677 25.984h-1.372c-.302 0-.545-.047-.73-.14-.185-.095-.307-.295-.365-.6l-.347-1.659a19.81 19.81 0 0 1-1.355 1.138c-.44.335-.904.617-1.39.847a7.126 7.126 0 0 1-1.555.52 8.787 8.787 0 0 1-1.833.177 6.17 6.17 0 0 1-1.92-.291 4.358 4.358 0 0 1-1.554-.874 4.16 4.16 0 0 1-1.051-1.473c-.261-.594-.391-1.296-.391-2.108 0-.705.19-1.384.573-2.037.382-.653.999-1.232 1.85-1.738.851-.505 1.966-.92 3.344-1.243 1.379-.324 3.064-.509 5.056-.556v-1.394c0-1.387-.293-2.437-.878-3.148-.584-.712-1.45-1.068-2.597-1.068-.753 0-1.387.097-1.902.291a7.154 7.154 0 0 0-1.338.653c-.376.241-.7.459-.973.653-.272.194-.541.29-.807.29a.917.917 0 0 1-.548-.167 1.27 1.27 0 0 1-.373-.414l-.556-1.006c.973-.952 2.02-1.664 3.144-2.134s2.369-.706 3.735-.706c.985 0 1.86.165 2.624.494a5.38 5.38 0 0 1 1.928 1.376c.521.588.915 1.3 1.181 2.135.267.834.4 1.752.4 2.751v11.431Zm-8.026-1.922a6.21 6.21 0 0 0 1.494-.168 5.84 5.84 0 0 0 1.277-.476c.4-.206.782-.456 1.146-.75.365-.294.721-.63 1.069-1.006v-3.722c-1.425.047-2.635.162-3.631.344-.996.183-1.807.42-2.432.715-.626.294-1.08.64-1.364 1.04-.284.4-.426.847-.426 1.341 0 .47.076.876.226 1.217.15.341.353.62.608.838.255.218.556.377.904.477.347.1.723.15 1.129.15Zm12.512 1.922v-17.87h1.772c.336 0 .568.065.695.195.128.13.214.353.26.67l.21 2.787c.601-1.246 1.346-2.22 2.232-2.92.886-.699 1.925-1.049 3.118-1.049.486 0 .927.056 1.32.168.394.111.759.267 1.095.467l-.4 2.346c-.08.294-.26.441-.538.441-.162 0-.412-.055-.747-.167-.336-.112-.805-.168-1.408-.168-1.077 0-1.977.318-2.701.953s-1.329 1.558-1.815 2.77v11.377h-3.093Zm19.132.283c-1.39 0-2.459-.394-3.206-1.182-.747-.788-1.12-1.923-1.12-3.405V164.59h-2.12a.686.686 0 0 1-.469-.167c-.127-.112-.19-.286-.19-.52v-1.253l2.883-.37.712-5.522a.67.67 0 0 1 .226-.432.71.71 0 0 1 .487-.168h1.563v6.157h5.038v2.275h-5.038v10.725c0 .753.18 1.312.539 1.676.359.365.822.547 1.39.547.324 0 .605-.044.842-.132a3.59 3.59 0 0 0 .617-.291c.174-.106.321-.203.443-.291.121-.089.229-.133.321-.133.162 0 .307.1.435.3l.903 1.5a5.746 5.746 0 0 1-1.928 1.19 6.46 6.46 0 0 1-2.328.433Zm14.618-.283v-15.188l-1.946-.23a1.537 1.537 0 0 1-.599-.273c-.156-.123-.234-.303-.234-.538v-1.287h2.78v-1.73c0-1.022.141-1.93.425-2.725.284-.793.689-1.464 1.216-2.01a5.146 5.146 0 0 1 1.902-1.244c.741-.283 1.575-.424 2.502-.424a6.58 6.58 0 0 1 2.189.353l-.07 1.57c-.011.235-.11.376-.295.423-.185.048-.446.071-.782.071h-.538c-.533 0-1.017.07-1.451.212-.434.14-.808.37-1.12.688-.313.317-.554.735-.721 1.252-.168.518-.252 1.159-.252 1.923v1.64h5.09v2.276H315.7v15.241h-3.11Zm17.933-18.152c1.285 0 2.446.218 3.483.653a7.343 7.343 0 0 1 2.64 1.852c.725.8 1.28 1.767 1.668 2.902.388 1.135.582 2.402.582 3.802 0 1.41-.194 2.681-.582 3.81-.388 1.129-.943 2.093-1.667 2.893a7.25 7.25 0 0 1-2.641 1.843c-1.037.43-2.198.644-3.483.644-1.286 0-2.447-.214-3.483-.644a7.333 7.333 0 0 1-2.65-1.843c-.73-.8-1.291-1.764-1.685-2.893-.394-1.129-.59-2.4-.59-3.81 0-1.4.196-2.667.59-3.802.394-1.135.956-2.102 1.685-2.902a7.427 7.427 0 0 1 2.65-1.852c1.036-.435 2.197-.653 3.483-.653Zm0 15.947c1.737 0 3.034-.59 3.891-1.773.857-1.181 1.286-2.83 1.286-4.948 0-2.128-.429-3.786-1.286-4.974-.857-1.188-2.154-1.782-3.891-1.782-.88 0-1.645.153-2.293.459a4.305 4.305 0 0 0-1.625 1.323c-.434.576-.758 1.285-.973 2.125-.214.841-.321 1.79-.321 2.85 0 1.058.107 2.004.321 2.84.215.834.539 1.537.973 2.107a4.35 4.35 0 0 0 1.625 1.315c.648.305 1.413.458 2.293.458Zm11.991 2.205v-17.87h1.772c.336 0 .568.065.695.195s.214.353.26.67l.209 2.787c.602-1.246 1.346-2.22 2.232-2.92.886-.699 1.926-1.049 3.119-1.049.486 0 .926.056 1.32.168.394.111.759.267 1.095.467l-.4 2.346c-.081.294-.26.441-.539.441-.162 0-.41-.055-.747-.167-.335-.112-.805-.168-1.407-.168-1.077 0-1.977.318-2.701.953s-1.33 1.558-1.816 2.77v11.377h-3.092Zm25.633.283c-1.39 0-2.458-.394-3.205-1.182-.747-.788-1.121-1.923-1.121-3.405V164.59h-2.12a.686.686 0 0 1-.468-.167c-.128-.112-.192-.286-.192-.52v-1.253l2.884-.37.713-5.522a.67.67 0 0 1 .225-.432.71.71 0 0 1 .487-.168h1.563v6.157h5.038v2.275h-5.038v10.725c0 .753.18 1.312.539 1.676.359.365.822.547 1.39.547.324 0 .605-.044.842-.132a3.59 3.59 0 0 0 .617-.291c.174-.106.321-.203.443-.291.122-.089.229-.133.321-.133.163 0 .307.1.435.3l.903 1.5a5.746 5.746 0 0 1-1.928 1.19 6.46 6.46 0 0 1-2.328.433Zm7.422-.283v-25.984h3.092v10.514a9.514 9.514 0 0 1 2.502-1.95c.915-.488 1.969-.732 3.162-.732.961 0 1.81.162 2.545.486a4.93 4.93 0 0 1 1.841 1.376c.493.593.866 1.308 1.121 2.143.255.835.382 1.758.382 2.77v11.377h-3.092v-11.378c0-1.352-.304-2.402-.912-3.148-.608-.747-1.538-1.12-2.789-1.12-.915 0-1.769.223-2.562.67-.793.447-1.526 1.052-2.198 1.817v13.16h-3.092Zm26.08-18.152c1.054 0 2.027.18 2.919.538a6.545 6.545 0 0 1 2.31 1.553c.65.676 1.156 1.511 1.52 2.505.366.993.548 2.125.548 3.396 0 .493-.052.823-.156.987-.105.165-.302.247-.591.247h-11.71c.024 1.13.174 2.111.452 2.946s.66 1.532 1.147 2.09a4.596 4.596 0 0 0 1.737 1.253c.672.276 1.425.415 2.259.415.776 0 1.445-.091 2.006-.274a9.463 9.463 0 0 0 1.45-.59c.406-.212.745-.41 1.017-.592.272-.182.507-.273.704-.273.255 0 .451.1.59.3l.87 1.146c-.383.47-.84.88-1.373 1.226a8.493 8.493 0 0 1-1.712.856c-.608.223-1.236.391-1.884.503-.649.111-1.292.167-1.929.167-1.216 0-2.336-.208-3.361-.626a7.374 7.374 0 0 1-2.658-1.835c-.747-.805-1.33-1.802-1.746-2.99-.417-1.187-.626-2.552-.626-4.092 0-1.247.188-2.411.565-3.493.376-1.082.918-2.02 1.624-2.814a7.48 7.48 0 0 1 2.589-1.87c1.019-.452 2.165-.679 3.44-.679Zm.07 2.311c-1.494 0-2.67.438-3.527 1.315-.857.876-1.39 2.09-1.598 3.642h9.572c0-.729-.098-1.396-.295-2.002a4.48 4.48 0 0 0-.869-1.57 3.89 3.89 0 0 0-1.398-1.023c-.55-.241-1.179-.362-1.885-.362Zm17.468 15.841v-25.984h3.092v10.514a9.514 9.514 0 0 1 2.502-1.95c.915-.488 1.968-.732 3.161-.732.962 0 1.81.162 2.546.486a4.93 4.93 0 0 1 1.841 1.376c.492.593.866 1.308 1.12 2.143.255.835.383 1.758.383 2.77v11.377h-3.093v-11.378c0-1.352-.304-2.402-.912-3.148-.608-.747-1.537-1.12-2.788-1.12a5.13 5.13 0 0 0-2.562.67c-.794.447-1.526 1.052-2.198 1.817v13.16h-3.092Zm26.236-18.152c1.286 0 2.447.218 3.484.653a7.343 7.343 0 0 1 2.64 1.852c.724.8 1.28 1.767 1.668 2.902.388 1.135.582 2.402.582 3.802 0 1.41-.194 2.681-.582 3.81-.388 1.129-.944 2.093-1.668 2.893a7.25 7.25 0 0 1-2.64 1.843c-1.037.43-2.198.644-3.484.644-1.285 0-2.446-.214-3.483-.644a7.333 7.333 0 0 1-2.65-1.843c-.729-.8-1.29-1.764-1.684-2.893-.394-1.129-.591-2.4-.591-3.81 0-1.4.197-2.667.59-3.802.394-1.135.956-2.102 1.686-2.902a7.427 7.427 0 0 1 2.65-1.852c1.036-.435 2.197-.653 3.482-.653Zm0 15.947c1.738 0 3.035-.59 3.892-1.773.857-1.181 1.285-2.83 1.285-4.948 0-2.128-.428-3.786-1.285-4.974-.857-1.188-2.154-1.782-3.892-1.782-.88 0-1.644.153-2.293.459a4.305 4.305 0 0 0-1.624 1.323c-.434.576-.759 1.285-.973 2.125-.214.841-.321 1.79-.321 2.85 0 1.058.107 2.004.321 2.84.214.834.539 1.537.973 2.107.434.57.976 1.009 1.624 1.315.649.305 1.413.458 2.293.458Zm11.992 2.205v-17.87h1.841c.44 0 .718.218.834.653l.226 1.835a9.077 9.077 0 0 1 2.18-1.993c.805-.518 1.74-.777 2.806-.777 1.193 0 2.157.336 2.892 1.006.736.67 1.266 1.576 1.59 2.717a5.612 5.612 0 0 1 .964-1.676 5.624 5.624 0 0 1 2.936-1.835 6.996 6.996 0 0 1 1.711-.212c.927 0 1.752.15 2.476.45.724.3 1.338.738 1.841 1.314.504.577.89 1.285 1.156 2.126.266.841.4 1.802.4 2.884v11.378h-3.093v-11.378c0-1.4-.301-2.46-.903-3.184-.603-.723-1.477-1.085-2.624-1.085-.51 0-.993.092-1.45.274a3.5 3.5 0 0 0-1.208.802 3.771 3.771 0 0 0-.825 1.332c-.203.535-.304 1.156-.304 1.861v11.378h-3.092v-11.378c0-1.434-.284-2.505-.852-3.21-.567-.706-1.395-1.059-2.484-1.059-.764 0-1.474.21-2.128.627-.654.417-1.254.985-1.798 1.702v13.318h-3.092Zm35.287-18.152c1.054 0 2.027.18 2.92.538a6.545 6.545 0 0 1 2.31 1.553c.648.676 1.155 1.511 1.52 2.505.365.993.547 2.125.547 3.396 0 .493-.052.823-.156.987-.105.165-.301.247-.591.247h-11.71c.024 1.13.175 2.111.453 2.946.277.835.66 1.532 1.146 2.09a4.596 4.596 0 0 0 1.737 1.253c.672.276 1.425.415 2.259.415.776 0 1.445-.091 2.006-.274a9.463 9.463 0 0 0 1.451-.59c.405-.212.744-.41 1.016-.592s.507-.273.704-.273c.255 0 .452.1.59.3l.87 1.146c-.383.47-.84.88-1.373 1.226a8.493 8.493 0 0 1-1.711.856c-.609.223-1.237.391-1.885.503-.649.111-1.292.167-1.929.167-1.216 0-2.336-.208-3.361-.626a7.374 7.374 0 0 1-2.658-1.835c-.747-.805-1.33-1.802-1.746-2.99-.417-1.187-.626-2.552-.626-4.092 0-1.247.188-2.411.565-3.493.376-1.082.918-2.02 1.624-2.814a7.48 7.48 0 0 1 2.589-1.87c1.019-.452 2.165-.679 3.44-.679Zm.07 2.311c-1.494 0-2.67.438-3.527 1.315-.857.876-1.39 2.09-1.598 3.642h9.572c0-.729-.098-1.396-.295-2.002a4.48 4.48 0 0 0-.869-1.57 3.89 3.89 0 0 0-1.398-1.023c-.55-.241-1.179-.362-1.885-.362Z" fill="#9A0505"/></g></svg>